<svg xmlns="http://www.w3.org/2000/svg" viewBox="0 0 25 25"><defs><style>.cls-1{fill:#b3b3b3;}</style></defs><title>자산 1</title><g id="레이어_2" data-name="레이어 2"><g id="bg"><path class="cls-1" d="M12.5,25A12.5,12.5,0,1,1,25,12.5,12.51,12.51,0,0,1,12.5,25ZM12.5.81A11.69,11.69,0,1,0,24.19,12.5,11.71,11.71,0,0,0,12.5.81Z"/><path class="cls-1" d="M8.14,5.84h4.28A10.27,10.27,0,0,1,14.27,6a4.57,4.57,0,0,1,1.49.52,2.7,2.7,0,0,1,1,1A3,3,0,0,1,17.11,9a3.32,3.32,0,0,1-.47,1.7,2.88,2.88,0,0,1-.55.66,2.1,2.1,0,0,1-.74.43v.09a3.33,3.33,0,0,1,1.74,1A2.93,2.93,0,0,1,17.77,15a3.54,3.54,0,0,1-.38,1.7,3.4,3.4,0,0,1-1.06,1.19,4.71,4.71,0,0,1-1.59.7,8.24,8.24,0,0,1-2,.23H8.14Zm4.09,5.26a2.86,2.86,0,0,0,1.8-.45,1.51,1.51,0,0,0,.56-1.24A1.34,1.34,0,0,0,14,8.19a3.31,3.31,0,0,0-1.75-.37H10.73v3.29Zm.3,5.68a3.57,3.57,0,0,0,2-.48,1.69,1.69,0,0,0,.7-1.49,1.47,1.47,0,0,0-.69-1.36,4,4,0,0,0-2-.42h-1.8v3.76Z"/></g></g></svg>