<svg xmlns="http://www.w3.org/2000/svg" viewBox="0 0 31 31"><defs><style>.cls-1{fill:#fff;}</style></defs><title>blog</title><g id="레이어_2" data-name="레이어 2"><g id="Main_page"><path class="cls-1" d="M15.5,31A15.5,15.5,0,1,1,31,15.5,15.52,15.52,0,0,1,15.5,31Zm0-30A14.5,14.5,0,1,0,30,15.5,14.52,14.52,0,0,0,15.5,1Z"/><path class="cls-1" d="M10.09,7.25H15.4a12.74,12.74,0,0,1,2.3.2,5.66,5.66,0,0,1,1.84.65,3.35,3.35,0,0,1,1.22,1.21,3.68,3.68,0,0,1,.44,1.89,4.12,4.12,0,0,1-.59,2.11,3.58,3.58,0,0,1-.68.82,2.61,2.61,0,0,1-.92.53v.11A4.13,4.13,0,0,1,21.18,16,3.64,3.64,0,0,1,22,18.56a4.39,4.39,0,0,1-.48,2.1,4.21,4.21,0,0,1-1.31,1.47,5.85,5.85,0,0,1-2,.87,10.22,10.22,0,0,1-2.46.28H10.09Zm5.07,6.53a3.54,3.54,0,0,0,2.23-.56,1.88,1.88,0,0,0,.69-1.54,1.66,1.66,0,0,0-.72-1.52,4.1,4.1,0,0,0-2.17-.46H13.3v4.08Zm.37,7a4.43,4.43,0,0,0,2.51-.6,2.09,2.09,0,0,0,.87-1.85,1.83,1.83,0,0,0-.86-1.69,4.94,4.94,0,0,0-2.53-.52H13.3v4.66Z"/></g></g></svg>