<svg xmlns="http://www.w3.org/2000/svg" viewBox="0 0 25 25"><defs><style>.cls-1{fill:#b3b3b3;}</style></defs><title>자산 2</title><g id="레이어_2" data-name="레이어 2"><g id="bg"><path class="cls-1" d="M12.5,25A12.5,12.5,0,1,1,25,12.5,12.51,12.51,0,0,1,12.5,25ZM12.5.81A11.69,11.69,0,1,0,24.19,12.5,11.71,11.71,0,0,0,12.5.81Z"/><path class="cls-1" d="M16.89,5.34H8.1A2.77,2.77,0,0,0,5.34,8.1V16.9A2.77,2.77,0,0,0,8.1,19.66h8.79a2.77,2.77,0,0,0,2.77-2.77V8.1A2.77,2.77,0,0,0,16.89,5.34ZM17.69,7H18V9.41H15.59V7Zm-7.23,4a2.51,2.51,0,0,1,4.09,0,2.57,2.57,0,0,1,.15.24A2.5,2.5,0,0,1,15,12.5a2.52,2.52,0,0,1-5,0,2.5,2.5,0,0,1,.33-1.23A2.64,2.64,0,0,1,10.46,11Zm7.81,5.87a1.38,1.38,0,0,1-1.37,1.37H8.1A1.37,1.37,0,0,1,6.73,16.9V11H8.87a4,4,0,0,0-.29,1.47,3.92,3.92,0,1,0,7.84,0,3.87,3.87,0,0,0-.15-1.07,4,4,0,0,0-.14-.4h2.14V16.9Z"/></g></g></svg>