<svg xmlns="http://www.w3.org/2000/svg" viewBox="0 0 31 31"><defs><style>.cls-1{fill:#fff;}</style></defs><title>insta</title><g id="레이어_2" data-name="레이어 2"><g id="Main_page"><path class="cls-1" d="M15.5,31A15.5,15.5,0,1,1,31,15.5,15.52,15.52,0,0,1,15.5,31Zm0-30A14.5,14.5,0,1,0,30,15.5,14.52,14.52,0,0,0,15.5,1Z"/><path class="cls-1" d="M20.95,6.62H10A3.44,3.44,0,0,0,6.62,10V21A3.44,3.44,0,0,0,10,24.38h10.9A3.44,3.44,0,0,0,24.38,21V10A3.44,3.44,0,0,0,20.95,6.62Zm1,2h.39v3h-3v-3Zm-9,5a3.12,3.12,0,0,1,5.07,0,3.19,3.19,0,0,1,.19.3,3.1,3.1,0,0,1,.4,1.52,3.13,3.13,0,0,1-6.26,0,3.09,3.09,0,0,1,.4-1.53A3.27,3.27,0,0,1,13,13.68ZM22.65,21a1.71,1.71,0,0,1-1.7,1.7H10A1.7,1.7,0,0,1,8.35,21V13.68H11a4.92,4.92,0,0,0-.36,1.82,4.86,4.86,0,1,0,9.72,0,4.8,4.8,0,0,0-.19-1.32,4.92,4.92,0,0,0-.17-.5h2.65V21Z"/></g></g></svg>