<?xml version="1.0" encoding="utf-8"?>
<!-- Generator: Adobe Illustrator 23.1.0, SVG Export Plug-In . SVG Version: 6.00 Build 0)  -->
<svg version="1.1" id="레이어_1" xmlns="http://www.w3.org/2000/svg" xmlns:xlink="http://www.w3.org/1999/xlink" x="0px"
	 y="0px" viewBox="0 0 31 31" style="enable-background:new 0 0 31 31;" xml:space="preserve">
<style type="text/css">
	.st0{fill:#FFFFFF;}
</style>
<title>facebook</title>
<path class="st0" d="M15.5,31C6.9,31,0,24.1,0,15.5S6.9,0,15.5,0S31,6.9,31,15.5C31,24.1,24.1,31,15.5,31z M15.5,1
	C7.5,1,1,7.5,1,15.5S7.5,30,15.5,30S30,23.5,30,15.5C30,7.5,23.5,1,15.5,1z"/>
<g>
	<g>
		<path class="st0" d="M9.7,5.8v11.7h11.7V5.8H9.7z M17.9,13.8h-1.6l-1.6-2.2h-0.2l0,2.2h-1.6V9.3l1.7,0l1.5,2.2h0.2V9.2h1.6V13.8z"
			/>
	</g>
	<polygon class="st0" points="9.7,18.6 12.1,21.4 18.7,21.4 21.2,18.5 	"/>
	<polygon class="st0" points="13.2,22.6 15.4,25.2 17.6,22.6 	"/>
</g>
</svg>
