<?xml version="1.0" encoding="utf-8"?>
<!-- Generator: Adobe Illustrator 23.1.0, SVG Export Plug-In . SVG Version: 6.00 Build 0)  -->
<svg version="1.1" id="레이어_1" xmlns="http://www.w3.org/2000/svg" xmlns:xlink="http://www.w3.org/1999/xlink" x="0px"
	 y="0px" viewBox="0 0 25 25" style="enable-background:new 0 0 25 25;" xml:space="preserve">
<style type="text/css">
	.st0{fill:#B3B3B3;}
	.st1{fill:none;}
</style>
<title>자산 3</title>
<path class="st0" d="M12.5,24.9c-6.8,0-12.4-5.6-12.4-12.4S5.7,0.1,12.5,0.1s12.4,5.6,12.4,12.4C24.9,19.3,19.3,24.9,12.5,24.9z
	 M12.5,0.9C6.1,0.9,0.9,6.1,0.9,12.5s5.2,11.6,11.6,11.6s11.6-5.2,11.6-11.6C24.1,6.1,18.9,0.9,12.5,0.9z"/>
<g>
	<path class="st0" d="M7.8,14.1h9.4V4.7H7.8V14.1z M14.4,11.1h-1.3l-1.3-1.8h-0.2v1.8h-1.3V7.5h1.4l1.2,1.8h0.2V7.5h1.3V11.1z"/>
	<polygon class="st0" points="7.8,15 9.7,17.2 15,17.2 17,14.9 	"/>
	<polygon class="st0" points="10.6,18.2 12.4,20.3 14.1,18.2 	"/>
</g>
<rect x="0.1" y="0.1" class="st1" width="24.8" height="24.8"/>
</svg>
