<?xml version="1.0" encoding="UTF-8"?>
<svg width="50px" height="50px" viewBox="0 0 50 50" version="1.1" xmlns="http://www.w3.org/2000/svg" xmlns:xlink="http://www.w3.org/1999/xlink">
    <!-- Generator: Sketch 41.2 (35397) - http://www.bohemiancoding.com/sketch -->
    <title>a3</title>
    <desc>Created with Sketch.</desc>
    <defs></defs>
    <g id="Page-1" stroke="none" stroke-width="1" fill="none" fill-rule="evenodd">
        <g id="a3">
            <g id="Group-9">
                <g id="Group-10-Copy">
                    <g id="Group-13">
                        <g id="thin-0331-computer-laptop-analytics-graph">
                            <g id="Layer_1">
                                <g id="Group" transform="translate(0.877193, 9.210526)" stroke="#FFFFFF" stroke-width="2">
                                    <path d="M43.975307,25.1663487 L43.975307,1.63093202 C43.975307,0.801973684 43.303432,0.130307018 42.4755154,0.130307018 L5.80655702,0.130307018 C4.97759868,0.130307018 4.30593202,0.802182018 4.30593202,1.63093202 L4.30593202,25.1663487" id="Shape"></path>
                                    <path d="M26.7219737,29.3938487 L26.7219737,30.0267654 C26.7219737,30.5263487 26.315932,30.9313487 25.8163487,30.9313487 L22.4657237,30.9313487 C21.9661404,30.9313487 21.5600987,30.5263487 21.5600987,30.0267654 L21.5600987,29.3938487 L0.190098684,29.3938487 L0.190098684,31.8948904 C0.190098684,32.8155154 0.936348684,33.560932 1.85593202,33.560932 L46.4238487,33.560932 C47.3444737,33.560932 48.0907237,32.8155154 48.0907237,31.8948904 L48.0907237,29.3938487 L26.7219737,29.3938487 L26.7219737,29.3938487 Z" id="Shape"></path>
                                    <ellipse id="Oval" cx="11.9136404" cy="13.0488487" rx="1.37833333" ry="1.36083333"></ellipse>
                                    <ellipse id="Oval" cx="20.021557" cy="7.95509868" rx="1.37833333" ry="1.36083333"></ellipse>
                                    <ellipse id="Oval" cx="28.1292654" cy="20.325307" rx="1.37833333" ry="1.36083333"></ellipse>
                                    <ellipse id="Oval" cx="36.237182" cy="11.593432" rx="1.37833333" ry="1.36083333"></ellipse>
                                    <path d="M18.6430154,8.82114035 L13.074057,12.319682" id="Shape"></path>
                                    <path d="M20.769057,9.09572368 L27.381557,19.1844737" id="Shape"></path>
                                    <path d="M29.057807,19.3255154 L35.2869737,12.6167654" id="Shape"></path>
                                </g>
                                <rect id="Rectangle-path" x="0" y="0" width="50" height="50"></rect>
                            </g>
                        </g>
                    </g>
                </g>
            </g>
        </g>
    </g>
</svg>