<?xml version="1.0" encoding="UTF-8"?>
<svg width="50px" height="50px" viewBox="0 0 50 50" version="1.1" xmlns="http://www.w3.org/2000/svg" xmlns:xlink="http://www.w3.org/1999/xlink">
    <!-- Generator: Sketch 41.2 (35397) - http://www.bohemiancoding.com/sketch -->
    <title>a1</title>
    <desc>Created with Sketch.</desc>
    <defs></defs>
    <g id="Page-1" stroke="none" stroke-width="1" fill="none" fill-rule="evenodd">
        <g id="a1">
            <g id="Group-5">
                <g id="Group-10-Copy">
                    <g id="thin-0050-settings-panel-equalizer-preferences">
                        <g id="Layer_1">
                            <g id="Group" fill="#FFFFFF">
                                <path d="M43.9920833,50 L6.006875,50 C2.69479167,50 0,47.30625 0,43.9941667 L0,6.006875 C0,2.69479167 2.69479167,0 6.006875,0 L43.9920833,0 C47.304375,0 50,2.69479167 50,6.006875 L50,43.9941667 C50,47.30625 47.304375,50 43.9920833,50 Z M6.006875,2.08333333 C3.843125,2.08333333 2.08333333,3.843125 2.08333333,6.006875 L2.08333333,43.9941667 C2.08333333,46.156875 3.843125,47.9166667 6.006875,47.9166667 L43.9920833,47.9166667 C46.156875,47.9166667 47.9166667,46.156875 47.9166667,43.9941667 L47.9166667,6.006875 C47.9166667,3.843125 46.156875,2.08333333 43.9920833,2.08333333 L6.006875,2.08333333 Z" id="Shape"></path>
                                <path d="M13.5345833,20.4325 C10.5885417,20.4325 8.191875,18.0358333 8.191875,15.0897917 C8.191875,12.14375 10.5885417,9.74708333 13.5345833,9.74708333 C16.480625,9.74708333 18.8770833,12.1439583 18.8770833,15.09 C18.8770833,18.0360417 16.4804167,20.4325 13.5345833,20.4325 Z M13.5345833,11.830625 C11.7370833,11.830625 10.2752083,13.2925 10.2752083,15.09 C10.2752083,16.8875 11.7370833,18.349375 13.5345833,18.349375 C15.3320833,18.349375 16.79375,16.8875 16.79375,15.09 C16.79375,13.2925 15.3320833,11.830625 13.5345833,11.830625 Z" id="Shape"></path>
                                <path d="M25.1933333,38.671875 C22.2472917,38.671875 19.850625,36.2752083 19.850625,33.3291667 C19.850625,30.383125 22.2472917,27.9864583 25.1933333,27.9864583 C28.139375,27.9864583 30.5360417,30.383125 30.5360417,33.3291667 C30.5360417,36.2752083 28.1391667,38.671875 25.1933333,38.671875 Z M25.1933333,30.07 C23.3958333,30.07 21.9339583,31.5327083 21.9339583,33.329375 C21.9339583,35.1260417 23.3958333,36.58875 25.1933333,36.58875 C26.9897917,36.58875 28.4527083,35.1260417 28.4527083,33.329375 C28.4527083,31.5327083 26.9897917,30.07 25.1933333,30.07 Z" id="Shape"></path>
                                <path d="M36.415625,41.73375 C35.8397917,41.73375 35.3739583,41.2679167 35.3739583,40.6920833 L35.3739583,24.6022917 C35.3739583,24.0264583 35.8397917,23.560625 36.415625,23.560625 C36.9914583,23.560625 37.4572917,24.0264583 37.4572917,24.6022917 L37.4572917,40.6920833 C37.4572917,41.2679167 36.9914583,41.73375 36.415625,41.73375 Z" id="Shape"></path>
                                <path d="M36.415625,17.0420833 C35.8397917,17.0420833 35.3739583,16.57625 35.3739583,16.0004167 L35.3739583,9.23166667 C35.3739583,8.65583333 35.8397917,8.19 36.415625,8.19 C36.9914583,8.19 37.4572917,8.65583333 37.4572917,9.23166667 L37.4572917,16.0004167 C37.4572917,16.5760417 36.9914583,17.0420833 36.415625,17.0420833 Z" id="Shape"></path>
                                <path d="M36.415625,25.6429167 C33.4695833,25.6429167 31.0729167,23.2472917 31.0729167,20.30125 C31.0729167,17.3552083 33.4695833,14.9585417 36.415625,14.9585417 C39.3616667,14.9585417 41.7583333,17.3552083 41.7583333,20.30125 C41.7583333,23.2472917 39.3616667,25.6429167 36.415625,25.6429167 Z M36.415625,17.0420833 C34.6191667,17.0420833 33.15625,18.5039583 33.15625,20.3014583 C33.15625,22.0989583 34.6189583,23.5608333 36.415625,23.5608333 C38.2122917,23.5608333 39.675,22.0989583 39.675,20.3014583 C39.675,18.5039583 38.2120833,17.0420833 36.415625,17.0420833 Z" id="Shape"></path>
                                <path d="M13.5345833,41.73375 C12.95875,41.73375 12.4929167,41.2679167 12.4929167,40.6920833 L12.4929167,19.3908333 C12.4929167,18.815 12.95875,18.3491667 13.5345833,18.3491667 C14.1104167,18.3491667 14.57625,18.815 14.57625,19.3908333 L14.57625,40.6920833 C14.57625,41.2679167 14.1102083,41.73375 13.5345833,41.73375 Z" id="Shape"></path>
                                <path d="M13.5345833,11.830625 C12.95875,11.830625 12.4929167,11.3647917 12.4929167,10.7889583 L12.4929167,9.23166667 C12.4929167,8.65583333 12.95875,8.19 13.5345833,8.19 C14.1104167,8.19 14.57625,8.65583333 14.57625,9.23166667 L14.57625,10.7891667 C14.57625,11.3647917 14.1102083,11.830625 13.5345833,11.830625 Z" id="Shape"></path>
                                <path d="M25.1933333,41.73375 C24.6175,41.73375 24.1516667,41.2679167 24.1516667,40.6920833 L24.1516667,37.6302083 C24.1516667,37.054375 24.6175,36.5885417 25.1933333,36.5885417 C25.7691667,36.5885417 26.235,37.054375 26.235,37.6302083 L26.235,40.6920833 C26.235,41.2679167 25.7689583,41.73375 25.1933333,41.73375 Z" id="Shape"></path>
                                <path d="M25.1933333,30.07 C24.6175,30.07 24.1516667,29.6041667 24.1516667,29.0283333 L24.1516667,9.23166667 C24.1516667,8.65583333 24.6175,8.19 25.1933333,8.19 C25.7691667,8.19 26.235,8.65583333 26.235,9.23166667 L26.235,29.0283333 C26.235,29.6041667 25.7689583,30.07 25.1933333,30.07 Z" id="Shape"></path>
                            </g>
                            <g id="Group-19">
                                <rect id="Rectangle-path" x="0" y="0" width="50" height="50"></rect>
                            </g>
                        </g>
                    </g>
                </g>
            </g>
        </g>
    </g>
</svg>