<?xml version="1.0" encoding="UTF-8"?>
<svg width="50px" height="50px" viewBox="0 0 50 50" version="1.1" xmlns="http://www.w3.org/2000/svg" xmlns:xlink="http://www.w3.org/1999/xlink">
    <!-- Generator: Sketch 41.2 (35397) - http://www.bohemiancoding.com/sketch -->
    <title>a5</title>
    <desc>Created with Sketch.</desc>
    <defs></defs>
    <g id="Page-1" stroke="none" stroke-width="1" fill="none" fill-rule="evenodd">
        <g id="a5">
            <g id="Group-17">
                <g id="Group-10-Copy">
                    <g id="Group-14">
                        <g id="thin-0394-business-handshake-deal-contract-sign">
                            <g id="Layer_1">
                                <g id="Group" transform="translate(2.020202, 11.606061)" stroke="#FFFFFF" stroke-width="2">
                                    <path d="M32.1821272,19.1387152 L27.8556625,15.432303" id="Shape"></path>
                                    <path d="M28.2061676,21.3853939 L24.6790969,18.4407879" id="Shape"></path>
                                    <path d="M8.94879382,13.6053697 C10.2039453,17.2854061 20.3118241,25.2523273 20.3118241,25.2523273 C22.7493999,27.3564121 24.9528342,24.1449576 22.9487938,22.4148727 L21.4122282,20.8937333" id="Shape"></path>
                                    <path d="M21.4120261,20.8937333 L25.5920261,24.5960242 C27.9966726,26.6718788 30.3423292,23.2850667 28.3554605,21.5700242 L29.4098039,22.4799879 C31.5116221,24.2943515 34.2782888,20.9481333 32.1821272,19.1387152 L32.3449554,19.2792485 C34.4473797,21.0940242 37.2134403,17.7473939 35.1170766,15.9379758 L24.7700059,7.33247273 C24.7700059,7.33247273 22.7738443,8.11282424 22.0019251,7.88780606 C22.0019251,7.88780606 19.0227332,12.5484848 16.8445514,10.9286424 C14.6663696,9.3088 16.8443494,2.41195152 22.9671777,1.4265697 C22.9671777,1.4265697 25.7227332,0.6252 32.4714201,4.17294545 L34.9732383,3.40021818" id="Shape"></path>
                                    <rect id="Rectangle-path" transform="translate(6.262362, 9.014738) rotate(195.812395) translate(-6.262362, -9.014738) " x="2.45108838" y="0.964946809" width="7.6225465" height="16.0995819"></rect>
                                    <rect id="Rectangle-path" transform="translate(40.761269, 9.428538) rotate(-15.812395) translate(-40.761269, -9.428538) " x="36.9499955" y="1.37874727" width="7.6225465" height="16.0995819"></rect>
                                    <path d="M11.7896019,3.37281212 C11.7896019,3.37281212 12.1449554,2.71465455 19.9237433,2.54238788" id="Shape"></path>
                                    <path d="M35.7845514,17.0375152 C35.7845514,17.0375152 37.7126322,17.547103 38.7243494,16.3678182" id="Shape"></path>
                                </g>
                                <rect id="Rectangle-path" x="0" y="0" width="48.4848485" height="49.4545455"></rect>
                            </g>
                        </g>
                    </g>
                </g>
            </g>
        </g>
    </g>
</svg>