<?xml version="1.0" encoding="UTF-8"?>
<svg width="50px" height="50px" viewBox="0 0 50 50" version="1.1" xmlns="http://www.w3.org/2000/svg" xmlns:xlink="http://www.w3.org/1999/xlink">
    <!-- Generator: Sketch 41.2 (35397) - http://www.bohemiancoding.com/sketch -->
    <title>a6</title>
    <desc>Created with Sketch.</desc>
    <defs></defs>
    <g id="Page-1" stroke="none" stroke-width="1" fill="none" fill-rule="evenodd">
        <g id="a6" fill="#FFFFFF">
            <g id="Group-10">
                <g id="Group-15">
                    <g id="Group-18">
                        <g id="communication-36-talking-persons.1">
                            <g id="Proximo">
                                <g id="XMLID_1934_">
                                    <g id="XMLID_682_" transform="translate(3.063725, 18.382353)">
                                        <path d="M7.65931373,15.3186275 C3.43584559,15.3186275 0,11.8824066 0,7.65931373 C0,3.43622089 3.43584559,0 7.65931373,0 C11.8827819,0 15.3186275,3.43622089 15.3186275,7.65931373 C15.3186275,11.8824066 11.8827819,15.3186275 7.65931373,15.3186275 Z M7.65931373,1.53186275 C4.28069087,1.53186275 1.53186275,4.28069087 1.53186275,7.65931373 C1.53186275,11.0379366 4.28069087,13.7867647 7.65931373,13.7867647 C11.0379366,13.7867647 13.7867647,11.0379366 13.7867647,7.65931373 C13.7867647,4.28069087 11.0379366,1.53186275 7.65931373,1.53186275 Z" id="Shape"></path>
                                    </g>
                                    <g id="XMLID_684_" transform="translate(0.000000, 32.169118)">
                                        <path d="M17.6164216,16.8504902 L3.82965686,16.8504902 C1.71810662,16.8504902 0,15.1323836 0,13.0208333 L0,10.7230392 C0,4.81025582 4.81025582,0 10.7230392,0 C16.6358226,0 21.4460784,4.81025582 21.4460784,10.7230392 L21.4460784,13.0208333 C21.4460784,15.1323836 19.7279718,16.8504902 17.6164216,16.8504902 Z M10.7230392,1.53186275 C5.6551011,1.53186275 1.53186275,5.6547258 1.53186275,10.7230392 L1.53186275,13.0208333 C1.53186275,14.2879136 2.56257659,15.3186275 3.82965686,15.3186275 L17.6164216,15.3186275 C18.8835018,15.3186275 19.9142157,14.2879136 19.9142157,13.0208333 L19.9142157,10.7230392 C19.9142157,5.6547258 15.7909773,1.53186275 10.7230392,1.53186275 Z" id="Shape"></path>
                                    </g>
                                    <g id="XMLID_534_" transform="translate(6.893382, 35.232843)">
                                        <path d="M0.785753676,2.2416973 C0.503393076,2.2416973 0.231502757,2.08537071 0.0983609069,1.81459865 C-0.0890088848,1.43537071 0.0665747549,0.9761106 0.445795037,0.789116115 C0.578561581,0.723291973 0.712821691,0.661213235 0.848958333,0.603615196 C1.23940717,0.436067708 1.68818934,0.618573836 1.85349265,1.00827206 C2.01917126,1.39721967 1.8381587,1.84750306 1.44883578,2.01280637 C1.33888634,2.05992647 1.2307981,2.11004136 1.12421109,2.16240043 C1.01501225,2.21626072 0.899448529,2.2416973 0.785753676,2.2416973 Z" id="Shape"></path>
                                    </g>
                                    <g id="XMLID_535_" transform="translate(3.063725, 37.530637)">
                                        <path d="M0.765931373,6.12745098 C0.342945772,6.12745098 -4.4408921e-16,5.78487286 -4.4408921e-16,5.36151961 C-4.4408921e-16,4.32930453 0.203079044,3.3270144 0.603247549,2.38156403 C0.929741115,1.6111443 1.3796492,0.901309743 1.93988971,0.271515012 C2.22113205,-0.0441329657 2.70507047,-0.0733072917 3.02146906,0.208685662 C3.33749234,0.489928002 3.36554075,0.974617034 3.08429841,1.29026501 C2.63513327,1.79440104 2.27498468,2.36286765 2.01393995,2.97920496 C1.69417126,3.73391544 1.53186275,4.53575368 1.53186275,5.36151961 C1.53186275,5.78487286 1.18891697,6.12745098 0.765931373,6.12745098 Z" id="Shape"></path>
                                    </g>
                                    <g id="XMLID_683_" transform="translate(30.637255, 18.382353)">
                                        <path d="M7.65931373,15.3186275 C3.43584559,15.3186275 0,11.8824066 0,7.65931373 C0,3.43622089 3.43584559,0 7.65931373,0 C11.8827819,0 15.3186275,3.43622089 15.3186275,7.65931373 C15.3186275,11.8824066 11.8827819,15.3186275 7.65931373,15.3186275 Z M7.65931373,1.53186275 C4.28069087,1.53186275 1.53186275,4.28069087 1.53186275,7.65931373 C1.53186275,11.0379366 4.28069087,13.7867647 7.65931373,13.7867647 C11.0379366,13.7867647 13.7867647,11.0379366 13.7867647,7.65931373 C13.7867647,4.28069087 11.0379366,1.53186275 7.65931373,1.53186275 Z" id="Shape"></path>
                                    </g>
                                    <g id="XMLID_685_" transform="translate(27.573529, 32.169118)">
                                        <path d="M17.6164216,16.8504902 L3.82965686,16.8504902 C1.71810662,16.8504902 0,15.1323836 0,13.0208333 L0,10.7230392 C0,4.81025582 4.81025582,0 10.7230392,0 C16.6358226,0 21.4460784,4.81025582 21.4460784,10.7230392 L21.4460784,13.0208333 C21.4460784,15.1323836 19.7279718,16.8504902 17.6164216,16.8504902 Z M10.7230392,1.53186275 C5.6551011,1.53186275 1.53186275,5.6547258 1.53186275,10.7230392 L1.53186275,13.0208333 C1.53186275,14.2879136 2.56257659,15.3186275 3.82965686,15.3186275 L17.6164216,15.3186275 C18.8835018,15.3186275 19.9142157,14.2879136 19.9142157,13.0208333 L19.9142157,10.7230392 C19.9142157,5.6547258 15.7909773,1.53186275 10.7230392,1.53186275 Z" id="Shape"></path>
                                    </g>
                                    <g id="XMLID_545_" transform="translate(34.466912, 35.232843)">
                                        <path d="M0.790617341,2.23870251 C0.507130821,2.23870251 0.234497549,2.08088235 0.101731005,1.80935968 C-0.0841452206,1.42938879 0.0733072917,0.970128676 0.453278186,0.784627757 C0.583425245,0.721047794 0.715448836,0.660462623 0.849708946,0.602872243 C1.23903186,0.4390625 1.68893995,0.620075061 1.85387561,1.00902267 C2.01917892,1.39797028 1.83779105,1.84825368 1.44809283,2.01355699 C1.33926164,2.05918352 1.23192402,2.10929841 1.12646293,2.16090686 C1.01799939,2.2140242 0.903186275,2.23870251 0.790617341,2.23870251 Z" id="Shape"></path>
                                    </g>
                                    <g id="XMLID_544_" transform="translate(30.637255, 37.530637)">
                                        <path d="M0.765931373,6.12745098 C0.342945772,6.12745098 0,5.78487286 0,5.36151961 C0,4.32930453 0.203079044,3.3270144 0.603247549,2.38156403 C0.929741115,1.61189491 1.37853094,0.902810968 1.93727022,0.274502145 C2.21738664,-0.0411458333 2.70208333,-0.0710631127 3.01847426,0.211672794 C3.33449755,0.492915135 3.36292126,0.976853554 3.08167892,1.29325214 C2.63439032,1.79589461 2.27498468,2.3636106 2.01393995,2.97994792 C1.69417126,3.73391544 1.53186275,4.53575368 1.53186275,5.36151961 C1.53186275,5.78487286 1.18891697,6.12745098 0.765931373,6.12745098 Z" id="Shape"></path>
                                    </g>
                                    <g id="XMLID_691_" transform="translate(5.361520, 0.000000)">
                                        <path d="M27.5735294,18.3823529 C27.3495098,18.3823529 27.1329657,18.2836167 26.9852405,18.1070925 L23.3852175,13.7867647 L14.9113511,13.7867647 L11.3113205,18.1071002 C11.119087,18.3359835 10.8090533,18.4324678 10.522572,18.3554305 C10.2334789,18.2776425 10.0165671,18.0375383 9.96757047,17.7420879 L9.30823376,13.7867647 L2.29779412,13.7867647 C1.03071385,13.7867647 0,12.7560509 0,11.4889706 L0,2.29779412 C0,1.03071385 1.03071385,0 2.29779412,0 L35.9987745,0 C37.2658548,0 38.2965686,1.03071385 38.2965686,2.29779412 L38.2965686,11.4889706 C38.2965686,12.7560509 37.2658548,13.7867647 35.9987745,13.7867647 L28.9883349,13.7867647 L28.3289905,17.7420803 C28.2800015,18.0375306 28.0630821,18.2776348 27.773989,18.3554228 C27.7077895,18.3733762 27.6400965,18.3823529 27.5735294,18.3823529 Z M14.5526961,12.254902 L23.7438725,12.254902 C23.9712623,12.254902 24.1866805,12.3558824 24.3321615,12.5301624 L27.0925781,15.8429688 L27.5839997,12.8951823 C27.6453355,12.525674 27.9650965,12.254902 28.3394608,12.254902 L35.9987745,12.254902 C36.4210095,12.254902 36.7647059,11.9115809 36.7647059,11.4889706 L36.7647059,2.29779412 C36.7647059,1.87518382 36.4210095,1.53186275 35.9987745,1.53186275 L2.29779412,1.53186275 C1.87555913,1.53186275 1.53186275,1.87518382 1.53186275,2.29779412 L1.53186275,11.4889706 C1.53186275,11.9115809 1.87555913,12.254902 2.29779412,12.254902 L9.95710784,12.254902 C10.3314721,12.254902 10.6512331,12.525674 10.7125689,12.8951746 L11.2039905,15.8429611 L13.9644072,12.5301547 C14.1098958,12.3558824 14.325314,12.254902 14.5526961,12.254902 Z" id="Shape"></path>
                                    </g>
                                    <g id="XMLID_686_" transform="translate(13.786765, 4.595588)">
                                        <path d="M20.6801471,1.53186275 L0.765931373,1.53186275 C0.342945772,1.53186275 0,1.18928462 0,0.765931373 C0,0.342578125 0.342945772,0 0.765931373,0 L20.6801471,0 C21.1031327,0 21.4460784,0.342578125 21.4460784,0.765931373 C21.4460784,1.18928462 21.1031327,1.53186275 20.6801471,1.53186275 Z" id="Shape"></path>
                                    </g>
                                    <g id="XMLID_689_" transform="translate(13.786765, 7.659314)">
                                        <path d="M14.5526961,1.53186275 L0.765931373,1.53186275 C0.342945772,1.53186275 0,1.18928462 0,0.765931373 C0,0.342578125 0.342945772,0 0.765931373,0 L14.5526961,0 C14.9756817,0 15.3186275,0.342578125 15.3186275,0.765931373 C15.3186275,1.18928462 14.9756817,1.53186275 14.5526961,1.53186275 Z" id="Shape"></path>
                                    </g>
                                    <g id="XMLID_690_" transform="translate(33.700980, 7.659314)">
                                        <path d="M0.765931373,1.53186275 C0.566597733,1.53186275 0.36763174,1.44734222 0.222150735,1.30971201 C0.0841452206,1.1638557 0,0.964897365 0,0.765931373 C0,0.56696538 0.0841452206,0.367256434 0.222150735,0.222150735 C0.505261949,-0.0613357843 1.02622549,-0.0613357843 1.30971201,0.222150735 C1.44734222,0.367256434 1.53186275,0.56696538 1.53186275,0.765931373 C1.53186275,0.964897365 1.44734222,1.1638557 1.30971201,1.30971201 C1.164231,1.44734222 0.964897365,1.53186275 0.765931373,1.53186275 Z" id="Shape"></path>
                                    </g>
                                    <g id="XMLID_439_" transform="translate(30.637255, 7.659314)">
                                        <path d="M0.765931373,1.53186275 C0.566597733,1.53186275 0.36763174,1.44734222 0.222150735,1.30971201 C0.0841452206,1.1638557 0,0.972372855 0,0.765931373 C0,0.558739277 0.0841452206,0.367256434 0.222150735,0.222150735 C0.505261949,-0.0613357843 1.02622549,-0.0613357843 1.30971201,0.222150735 C1.44734222,0.367256434 1.53186275,0.56696538 1.53186275,0.765931373 C1.53186275,0.964897365 1.44734222,1.1638557 1.30971201,1.30971201 C1.164231,1.44734222 0.972748162,1.53186275 0.765931373,1.53186275 Z" id="Shape"></path>
                                    </g>
                                    <g id="XMLID_533_" transform="translate(23.743873, 25.275735)">
                                        <path d="M0.765931373,1.53186275 C0.566597733,1.53186275 0.36763174,1.44734222 0.222150735,1.30971201 C0.0841452206,1.1638557 0,0.964897365 0,0.765931373 C0,0.56696538 0.0841452206,0.367256434 0.222150735,0.222150735 C0.505261949,-0.0613357843 1.02622549,-0.0613357843 1.30971201,0.222150735 C1.44734222,0.367256434 1.53186275,0.56696538 1.53186275,0.765931373 C1.53186275,0.964897365 1.44734222,1.1638557 1.30971201,1.30971201 C1.164231,1.44734222 0.964897365,1.53186275 0.765931373,1.53186275 Z" id="Shape"></path>
                                    </g>
                                    <g id="XMLID_546_" transform="translate(20.680147, 25.275735)">
                                        <path d="M0.765931373,1.53186275 C0.566597733,1.53186275 0.36763174,1.44734222 0.222150735,1.30971201 C0.0841452206,1.1638557 0,0.964897365 0,0.765931373 C0,0.56696538 0.0841452206,0.367256434 0.222150735,0.222150735 C0.505261949,-0.0613357843 1.02622549,-0.0613357843 1.30971201,0.222150735 C1.44734222,0.359780944 1.53186275,0.558739277 1.53186275,0.765931373 C1.53186275,0.972372855 1.44734222,1.1638557 1.30971201,1.30971201 C1.164231,1.44734222 0.964897365,1.53186275 0.765931373,1.53186275 Z" id="Shape"></path>
                                    </g>
                                    <g id="XMLID_552_" transform="translate(26.807598, 25.275735)">
                                        <path d="M0.765931373,1.53186275 C0.566597733,1.53186275 0.36763174,1.44734222 0.222150735,1.30971201 C0.0841452206,1.1638557 0,0.964897365 0,0.765931373 C0,0.56696538 0.0841452206,0.367256434 0.222150735,0.222150735 C0.513112745,-0.0613357843 1.02622549,-0.0613357843 1.30971201,0.222150735 C1.44734222,0.367256434 1.53186275,0.558739277 1.53186275,0.765931373 C1.53186275,0.964897365 1.44734222,1.1638557 1.30971201,1.30971201 C1.164231,1.44734222 0.964897365,1.53186275 0.765931373,1.53186275 Z" id="Shape"></path>
                                    </g>
                                </g>
                            </g>
                        </g>
                    </g>
                </g>
            </g>
        </g>
    </g>
</svg>