<?xml version="1.0" encoding="UTF-8"?>
<svg width="50px" height="50px" viewBox="0 0 50 50" version="1.1" xmlns="http://www.w3.org/2000/svg" xmlns:xlink="http://www.w3.org/1999/xlink">
    <!-- Generator: Sketch 41.2 (35397) - http://www.bohemiancoding.com/sketch -->
    <title>a4</title>
    <desc>Created with Sketch.</desc>
    <defs></defs>
    <g id="Page-1" stroke="none" stroke-width="1" fill="none" fill-rule="evenodd">
        <g id="a4">
            <g id="Group-8">
                <g id="Group-10">
                    <g id="Group-20">
                        <g id="woozoo_logo">
                            <g id="레이어_1">
                                <g id="logo" transform="translate(0.000000, 7.000000)" fill="#FFFFFF">
                                    <path d="M23.0927934,20.1080357 C23.0349171,20.0940747 22.9717793,20.0958198 22.7876276,20.0766234 C22.4508929,20.2144886 21.9720982,20.3314123 21.5827487,20.5914367 C21.1074617,20.9073052 21.003986,22.087013 21.3337054,22.6053166 C21.7107781,23.1969156 22.317602,23.4342532 22.9261798,23.6523945 C23.0103635,23.6820617 23.1383929,23.6576299 23.2173151,23.6087662 C23.4418048,23.4726461 23.6540179,23.3138393 23.864477,23.1532873 C24.4976084,22.6751218 24.3573023,22.0206981 24.208227,21.388961 C24.0626594,20.7694399 23.7329401,20.2842938 23.0927934,20.1080357 M23.0314094,22.9613231 C22.8419962,23.0607955 22.7034439,23.0433442 22.5280612,22.9421266 C21.9405293,22.6088068 21.7546237,21.9508929 22.0720663,21.1847808 C22.3877551,21.3558036 22.5982143,21.1969968 22.8279656,20.9474432 C23.0524554,20.7013799 23.3734056,20.7903815 23.5505421,21.0643669 C23.9205995,21.6367695 23.6347258,22.6506899 23.0314094,22.9613231" id="Shape"></path>
                                    <path d="M23.0086097,23.8094562 C22.9595026,23.8094562 22.9156569,23.8024756 22.8753189,23.7885146 C22.3193559,23.5878247 21.6283482,23.3400162 21.2091837,22.6821023 C20.8549107,22.1236607 20.9513712,20.8409903 21.5020727,20.4727679 C21.7949617,20.2773133 22.1264349,20.1621347 22.419324,20.0609172 C22.5315689,20.0207792 22.6385523,19.9841315 22.7315051,19.9457386 L22.7665816,19.9317776 L22.8016582,19.9352679 C22.8753189,19.9439935 22.9279337,19.9474838 22.9700255,19.950974 C23.0419324,19.9579545 23.0840242,19.9614448 23.1243622,19.9719156 C23.7610013,20.1464286 24.1696429,20.6123782 24.3450255,21.3575487 C24.4870855,21.9683442 24.6642219,22.7274756 23.9486607,23.2667208 C23.7504783,23.4168019 23.5242347,23.5878247 23.2874681,23.7309253 C23.2120536,23.779789 23.106824,23.8094562 23.0086097,23.8094562 M22.8069196,20.2214692 C22.7174745,20.2581169 22.6175064,20.2912744 22.5140306,20.3296672 C22.236926,20.4256494 21.9247449,20.5355925 21.6616709,20.7118506 C21.2758291,20.9683847 21.1513074,22.0573458 21.4529656,22.5320211 C21.7932079,23.0642857 22.3211097,23.2859172 22.975287,23.5215097 C22.9875638,23.5267451 23.0910395,23.5215097 23.1401467,23.4918425 C23.3681441,23.3557224 23.5873724,23.1899351 23.7785395,23.0433442 C24.3485332,22.6140422 24.2064732,22.0084821 24.0714286,21.4238636 C23.9205995,20.7781656 23.5873724,20.394237 23.055963,20.2476461 C23.0314094,20.2406656 23.0015944,20.2389205 22.9507334,20.2354302 C22.9121492,20.2319399 22.8665497,20.2284497 22.8069196,20.2214692 M22.7963967,23.1689935 C22.6876594,23.1689935 22.580676,23.135836 22.4544005,23.0660308 C21.7967156,22.6908279 21.5985332,21.9491477 21.9370217,21.1289367 L21.9984056,20.9840909 L22.1387117,21.0591315 C22.3632015,21.1795455 22.5122768,21.0765828 22.7209821,20.851461 C22.9893176,20.5617695 23.440051,20.6298295 23.6715561,20.9875812 C23.8662309,21.2894886 23.9100765,21.7083198 23.7960778,22.1376218 C23.6803253,22.5669237 23.4190051,22.9229302 23.0980548,23.0869724 C22.9928253,23.1428166 22.894611,23.1689935 22.7963967,23.1689935 M22.1527423,21.3715097 C21.9387755,22.0015016 22.1018814,22.5355114 22.5982143,22.8182224 C22.7490434,22.9037338 22.8279656,22.907224 22.964764,22.8339286 C23.2173151,22.704789 23.4260204,22.4150974 23.520727,22.0625812 C23.6136798,21.7170455 23.582111,21.3715097 23.4312819,21.1394075 C23.2979911,20.9352273 23.0822704,20.8793831 22.9314413,21.0416802 C22.7402742,21.2528409 22.4754464,21.4657468 22.1527423,21.3715097" id="Shape"></path>
                                    <path d="M48.9757653,9.68262987 C48.9091199,9.41213474 48.7039222,9.17654221 48.5794005,8.92349838 C48.2128508,8.17658279 47.8182398,7.43664773 46.9290497,6.88169643 C46.0521365,6.33372565 45.4347895,5.67232143 44.3860013,5.19590097 C43.4512117,4.77008929 42.4339923,4.41233766 41.1238839,4.22211851 C41.0414541,4.20815747 40.9239477,4.22037338 40.6345663,4.22211851 C41.0782844,4.39488636 41.6517857,4.37568994 41.7464923,4.64793019 C41.5728635,4.69330357 41.4623724,4.72471591 41.3501276,4.74914773 C40.4328763,4.96205357 39.8330676,4.81546266 39.131537,4.78056006 C39.1280293,4.78056006 39.1262755,4.77706981 39.1262755,4.77706981 C39.1175064,4.77532468 39.1069834,4.77706981 39.0982143,4.78056006 L39.0964605,4.78056006 L39.1297832,4.78579545 C38.8351403,4.78230519 38.5404974,4.77881494 38.2458546,4.77532468 L38.2283163,4.75612825 L38.2107781,4.77357955 C37.8038903,4.76834416 37.3970026,4.76136364 36.9918686,4.75612825 C36.9445153,4.71075487 36.897162,4.66538149 36.8498087,4.62000812 C36.7919324,4.62175325 36.7358099,4.62349838 36.6779337,4.62524351 C34.4014668,2.89756494 32.0653699,1.8557224 29.5801977,1.46306818 L29.1189413,1.38977273 C29.1101722,1.38628247 29.1014031,1.38279221 29.0926339,1.37930195 C29.0628189,1.36883117 29.0330038,1.35661526 29.0066964,1.34614448 C28.4016263,1.05819805 27.7702487,1.01806006 27.2335778,1.01806006 C27.0774872,1.01806006 26.9213967,1.02329545 26.7635523,1.02504058 C26.6109694,1.03027597 26.4583865,1.0320211 26.3058036,1.0320211 L26.1777742,1.0320211 L26.1690051,1.20304383 L25.7621173,1.20304383 L25.8235013,1.00758929 L25.4394133,1.00758929 C25.3534758,1.00758929 25.2710459,1.00584416 25.1903699,1.00409903 C25.0044643,0.998863636 24.8273278,0.995373377 24.653699,1.01456981 C23.5102041,1.13149351 22.4210778,1.43165584 21.6020408,1.67946429 C21.4354273,1.73007305 21.2740753,1.79289773 21.1179847,1.85397727 C21.0723852,1.87142857 21.0285395,1.88887987 20.9846939,1.90633117 L20.9338329,1.92203734 C20.4795918,2.05641234 20.1428571,2.18555195 19.8552296,2.33039773 L19.6956314,2.39147727 L19.7342156,2.3932224 C19.3097895,2.62357955 18.9835778,2.89931006 18.506537,3.30068994 C18.4925064,3.30941558 18.4486607,3.32337662 18.4188457,3.33035714 C18.3785077,3.3338474 18.3399235,3.34606331 18.3030931,3.36002435 L18.2013712,3.39841721 L18.0259885,3.74395292 L17.5805166,3.71079545 L17.4963329,3.77536526 C17.4542411,3.8067776 17.4121492,3.84691558 17.3700574,3.8887987 C17.3472577,3.90974026 17.3139349,3.9411526 17.292889,3.95685877 C16.8947704,3.97954545 16.6299426,4.22037338 16.4194834,4.41408279 C16.3738839,4.45596591 16.3282844,4.49784903 16.2826849,4.53624188 C16.1283482,4.66712662 16.0143495,4.82593344 15.9056122,4.97601461 C15.8126594,5.10340909 15.7284758,5.22207792 15.6320153,5.30758929 C15.5355548,5.38961039 15.4075255,5.45418019 15.2724809,5.52398539 C15.098852,5.61298701 14.9182079,5.70373377 14.765625,5.85206981 C14.3113839,6.28311688 13.8711735,6.74383117 13.4485013,7.18883929 C13.2853954,7.36335227 13.1205357,7.53612013 12.9539222,7.70714286 C12.7189094,7.94971591 12.5172194,8.22195617 12.3242985,8.48372565 C12.0349171,8.87637987 11.7595663,9.24983766 11.3860013,9.5150974 C11.3158482,9.46972403 11.2404337,9.44005682 11.1544962,9.44005682 C10.9212372,9.44005682 10.8125,9.65121753 10.7581314,9.75068994 C10.6336097,9.98977273 10.5108418,10.2271104 10.388074,10.4661932 C10.2775829,10.6843344 10.1688457,10.9007305 10.0548469,11.1171266 C9.97417092,11.2672078 9.8671875,11.4068182 9.74968112,11.5568994 C9.58131378,11.7698052 9.39540816,12.0071429 9.28667092,12.3090503 L9.27264031,12.3090503 C9.22704082,12.3142857 9.18319515,12.317776 9.14987245,12.3230114 L8.96922832,12.3544237 L8.92538265,12.5376623 C8.90258291,12.6353896 8.87627551,12.7296266 8.84996811,12.8238636 C8.79209184,13.0454951 8.73070791,13.272362 8.70615434,13.5079545 C8.6973852,13.6161526 8.70264668,13.7191153 8.71316964,13.8168425 C7.85204082,14.3299107 6.99441964,14.8464692 6.16661352,15.3665179 C4.44084821,16.4589692 3.14126276,17.6037744 2.28890306,18.7520698 C1.64524872,19.6159091 1.12611607,20.4762581 1.06122449,21.2964692 C0.984056122,22.2528003 1.06648597,23.1532873 1.69610969,23.9002029 C2.60108418,24.9699675 3.92346939,25.863474 5.4510523,26.6767045 C6.58577806,27.2770292 7.97480867,27.7220373 9.54097577,28.0518669 C9.72512755,28.4183442 9.89174107,28.7743506 9.99521684,29.1600244 C10.044324,29.3467532 10.2074298,29.4444805 10.3266901,29.5160308 L10.3828125,29.5509334 C10.5038265,29.6294643 10.630102,29.6992695 10.7546237,29.7708198 L11.0475128,29.9226461 C11.5701531,30.6521104 12.2611607,31.1965909 12.8732462,31.6485795 C13.2520727,31.9312906 13.6677296,32.2174919 14.1833546,32.5560471 C14.5043048,32.7672078 14.8077168,32.9434659 15.109375,33.0952922 L15.6285077,33.3570617 C16.3686224,33.7287744 17.1350446,34.1161932 17.9067283,34.4547484 C18.4995217,34.7130276 19.1186224,34.9137175 19.7184311,35.1074269 L20.0656888,35.2191153 C20.4866071,35.3569805 20.9233099,35.5000812 21.3757972,35.5541802 C21.7037628,35.5943182 22.0615434,35.6117695 22.5,35.6117695 C22.6771365,35.6117695 22.8560268,35.6065341 23.0349171,35.604789 C23.3278061,35.5978084 23.6242028,35.6012987 23.9188457,35.604789 C24.0942283,35.6065341 24.2731186,35.6082792 24.4485013,35.6082792 C25.0711097,35.6082792 25.7393176,35.5838474 26.4110332,35.4093344 C26.9056122,35.2801948 27.4194834,35.2068994 27.9175702,35.1388393 C28.2350128,35.095211 28.5629783,35.0480925 28.8856824,34.9887581 C29.2013712,34.9294237 29.5170599,34.8718344 29.8327487,34.8125 C30.9148597,34.6135552 32.033801,34.409375 33.1281888,34.1563312 C34.4277742,33.8596591 35.6151148,33.2628247 36.6270727,32.7235795 C37.3286033,32.3501218 38.0564413,31.9417614 38.7228954,31.4042614 L39,31.3885552 C39.424426,31.3623782 39.7015306,31.1093344 39.7646684,30.6939935 L39.7664222,30.6765422 C39.7734375,30.6782873 39.7769452,30.6782873 39.7839605,30.6800325 L39.8734056,30.6922484 C40.0943878,30.6922484 40.2802934,30.4566558 40.3188776,30.4077922 C40.4381378,30.2454951 40.5609056,30.0849432 40.6854273,29.9243912 C41.0133929,29.4985795 41.355389,29.0570617 41.6272321,28.5736607 C41.9972895,27.9174919 42.3129783,27.193263 42.5655293,26.4149351 C42.9075255,25.3643669 43.1793686,24.3434659 43.3722895,23.3818994 C43.5652105,22.4255682 43.600287,21.4482955 43.6213329,20.4971997 C44.4807079,19.8497565 45.2558992,19.2005682 45.8872768,18.5409091 C46.9886798,17.3926136 47.7480867,16.2565341 48.3093112,15.1379058 C48.8126594,14.132711 49.0529337,13.1763799 49.1388712,12.2409903 C49.2248087,11.3527192 49.1792092,10.4993506 48.9757653,9.68262987 M13.0100446,10.4522321 C14.2552615,8.71931818 15.7214605,7.25166396 17.3647959,6.0911526 C19.4764031,4.60430195 21.7177934,3.71254058 24.0275829,3.44204545 C24.3117028,3.40888799 24.6151148,3.39318182 24.9536033,3.39318182 C25.4604592,3.39318182 25.9866071,3.42982955 26.4952168,3.46473214 C26.7916135,3.4856737 27.0862564,3.50661526 27.3791454,3.5205763 C27.8158482,3.53977273 28.2771046,3.57642045 28.6910077,3.70556006 C29.981824,4.10868506 31.1025191,4.49784903 32.1127232,4.89050325 C32.428412,5.01440747 32.7248087,5.1976461 33.0387436,5.39310065 C33.2281569,5.50827922 33.4228316,5.62869318 33.6245217,5.73689123 C34.4874043,6.19586039 35.3327487,6.74383117 36.1377551,7.37207792 C36.5411352,7.68271104 36.8322704,7.93400974 37.0813138,8.18356331 C37.5373087,8.63904221 37.9424426,9.05438312 38.301977,9.51160714 C39.1894133,10.6407062 39.9470663,11.9006899 40.6205357,13.3613636 C41.1045918,14.4119318 41.4956952,15.2914773 41.7552615,16.254789 C42.0113202,17.2023945 42.1323342,18.0487825 42.1270727,18.8410714 C41.8324298,19.076664 41.5202487,19.3122565 41.1992985,19.5408685 C40.3679847,20.1359578 39.2999043,20.5652597 38.1897321,21.1167208 L37.6162309,21.6786526 L37.5197704,21.7728896 C37.5197704,21.7728896 37.5127551,21.7798701 37.5092474,21.7816153 C37.0550064,22.167289 36.4885204,22.490138 35.7010523,22.7676136 C35.0240753,23.001461 34.2401148,23.2859172 33.7981505,23.6000406 C33.4368622,23.8565747 33.0720663,24.0398133 32.6336097,24.2038555 C32.6037946,24.2160714 32.5739796,24.2247971 32.5441645,24.2352679 C32.5424107,23.0730114 32.5020727,21.9072646 32.4547194,20.7258117 C32.4213967,19.8672078 32.4249043,18.9876623 32.428412,18.1395292 C32.4301658,17.800974 32.4301658,17.4606737 32.4301658,17.1203734 C32.4301658,16.7591315 32.4319196,16.3978896 32.4354273,16.0366477 C32.4371811,15.7120536 32.4406888,15.3857143 32.4406888,15.0611201 C32.4406888,15.0611201 32.388074,14.3351461 32.3442283,13.8814123 C32.2775829,13.2234984 32.1951531,12.8343344 32.1127232,12.1903815 L32.0829082,11.9478084 C32.0373087,11.5830763 31.9145408,10.9286526 31.3305166,10.9286526 C31.2884247,10.9286526 31.2428253,10.9303977 31.1919643,10.933888 C30.5027105,10.9757711 29.8134566,11.2951299 29.1242028,11.3352679 C28.3367347,11.3806412 27.5527742,11.4242695 26.7653061,11.4731331 C26.1619898,11.5097808 25.5586735,11.5534091 24.957111,11.5970373 C23.9995217,11.6633523 23.0103635,11.7349026 22.0387436,11.780276 C21.721301,11.7959821 21.3828125,11.8029627 20.9706633,11.8029627 C20.6795281,11.8029627 20.3848852,11.7994724 20.083227,11.7959821 C19.7675383,11.794237 19.4448342,11.7890016 19.113361,11.7890016 L19.0274235,11.7890016 L18.9590242,11.8361201 C18.9590242,11.8361201 18.7152423,12.2724026 18.7853954,12.5446429 C18.9905931,13.3543831 18.9485013,12.9913961 18.9467474,13.1885958 C18.9397321,14.7941153 18.8941327,16.4240666 18.850287,18.001664 L18.8292411,18.7398539 C18.8152105,19.2546672 18.7924107,19.7677354 18.7713648,20.2808036 C18.7415497,21.0032873 18.7099809,21.7519481 18.7012117,22.490138 C18.6906888,23.5354708 18.71875,24.4848214 18.7889031,25.3940341 C18.839764,26.0519481 18.8590561,26.7150974 18.8573023,27.367776 C18.4433992,27.4166396 18.0294962,27.4655032 17.6155931,27.516112 C17.4717793,27.5353084 17.3016582,27.5143669 17.1999362,27.55625 C16.6194196,27.7970779 16.2528699,27.7115666 15.8565051,27.676664 C14.1517857,27.5335633 12.4996811,27.3538149 10.9826212,27.0553977 C10.3442283,26.0222808 9.91454082,25.0223214 9.67777423,23.9979302 C9.49888393,23.2265828 9.42522321,22.4255682 9.46731505,21.6803977 C9.53746811,20.394237 9.68478954,19.0487419 9.90577168,17.6857955 C10.3196747,15.1466315 11.3351403,12.7802354 13.0100446,10.4522321 M29.111926,25.4289367 C28.8435906,25.4987419 28.566486,25.5510958 28.3086735,25.6366071 C26.5355548,26.2159903 24.7536671,26.5929383 22.9998406,26.844237 C22.0966199,26.9751218 21.1986607,27.0903003 20.3042092,27.1967532 C20.2954401,27.0117695 20.2866709,26.8267857 20.2779018,26.6435471 C20.2515944,26.1234984 20.2270408,25.6034497 20.2077487,25.083401 C20.1831952,24.4062906 20.2428253,23.7204545 20.3024554,23.0573052 L20.3392857,22.6367289 C20.386639,22.0521104 20.4094388,21.6018669 20.4094388,21.1795455 C20.4076849,20.4849838 20.4006696,19.7921672 20.3936543,19.0976055 C20.3848852,18.2110795 20.3761161,17.3262987 20.3796237,16.4397727 C20.3813776,15.8080357 20.4059311,15.1640828 20.4287309,14.5393263 C20.4357462,14.3351461 20.4427615,14.1309659 20.4515306,13.9267857 C21.9545599,13.7819399 29.3381696,13.2706169 30.7675383,13.2130276 C30.790338,13.3334416 30.8061224,13.4486201 30.8061224,13.5585633 C30.8043686,14.1780844 30.7991071,14.8010958 30.7955995,15.422362 C30.7868304,16.3682224 30.7780612,17.3489854 30.7885842,18.3122971 C30.7955995,19.1394886 30.8201531,19.9806412 30.8447066,20.7903815 C30.8639987,21.4605114 30.8832908,22.1288961 30.8955676,22.799026 C30.9043367,23.3976055 30.9095982,24.0258523 30.9043367,24.6732955 C30.7535077,24.7099432 30.6570472,24.7326299 30.5605867,24.7535714 C30.5623406,24.7692776 30.5658482,24.7849838 30.567602,24.7989448 C30.6623087,24.7657873 30.7570153,24.7361201 30.9025829,24.6872565 C30.9025829,24.7239042 30.9008291,24.7605519 30.9008291,24.7954545 C30.7868304,24.8321023 30.6710778,24.8704951 30.5570791,24.908888 C30.3027742,24.9926542 29.9905931,25.1933442 29.7731186,25.0502435 C29.7731186,25.0502435 29.5188138,25.1549513 29.3820153,25.2142857 C29.5679209,25.3207386 29.3294005,25.3748377 29.111926,25.4289367 M4.64429209,24.2858766 C3.38504464,23.4168019 2.71859056,22.3487825 3.1044324,20.9771104 C3.47273597,19.6612825 4.37946429,18.3035714 6.08769133,16.8900162 C6.75239158,16.3420455 7.49075255,15.8132711 8.28348214,15.3002029 C8.19228316,15.691112 8.11862245,16.1116883 8.06425383,16.5793831 C8.0361926,16.8167208 8.00637755,17.0540584 7.97831633,17.2913961 C7.87484056,18.1046266 7.76961097,18.9440341 7.76434949,19.7782062 C7.7520727,22.0817776 8.28874362,24.2823864 8.88504464,26.5196429 C8.88679847,26.5248782 8.8885523,26.5301136 8.8885523,26.5301136 C8.16422194,26.3102273 7.50127551,26.0484578 6.9119898,25.7448052 C6.0596301,25.3067776 5.37037628,24.788474 4.64429209,24.2858766 M18.7766263,32.1005682 C18.7783801,32.3047484 18.7801339,32.5106737 18.7818878,32.7200893 C18.7608418,32.7113636 18.7397959,32.702638 18.7205038,32.6956575 C18.415338,32.582224 18.1242028,32.474026 17.8453444,32.3501218 C16.3177615,31.6695211 14.7375638,30.9662338 13.4029018,29.8441153 C12.8837691,29.4095779 12.4190051,28.9488636 11.9998406,28.456737 C13.2818878,28.6137987 14.644611,28.7132711 16.0108418,28.7987825 C16.8947704,28.8546266 17.8470982,28.8685877 18.8292411,28.8249594 C18.8169643,29.2001623 18.8029337,29.5683847 18.7889031,29.9226461 C18.7625957,30.6416396 18.7678571,31.3501623 18.7766263,32.1005682 M26.1356824,32.877151 C25.8305166,32.8946023 25.5043048,32.9015828 25.1377551,32.9015828 C24.6659758,32.9015828 24.1819196,32.8876218 23.7154018,32.8736607 C23.3751594,32.8631899 23.0349171,32.8527192 22.6946747,32.8474838 L22.5385842,32.8457386 C21.9720982,32.837013 21.388074,32.8282873 20.8163265,32.8003653 C20.6812819,32.7933847 20.5392219,32.7619724 20.3761161,32.7253247 C20.3603316,32.7200893 20.3445472,32.7183442 20.3287628,32.7148539 C20.3270089,32.6206169 20.3252551,32.5298701 20.3235013,32.4391234 C20.3182398,32.1075487 20.3129783,31.7951705 20.3305166,31.4897727 C20.386639,30.5648539 20.3831314,29.6364448 20.356824,28.7167614 C23.5049426,28.4392857 26.7354911,27.8843344 30.0677615,26.9000812 C30.3238202,26.8232955 30.5798788,26.7482549 30.8341837,26.669724 C30.7692921,27.8529221 30.6500319,29.0692776 30.4325574,30.2699269 C30.40625,30.418263 30.3624043,30.5683442 30.3115434,30.7393669 C30.285236,30.8301136 30.2589286,30.9208604 30.2326212,31.0220779 L30.1922832,31.1686688 L30.2887436,31.2838474 C30.4009885,31.4217127 30.5255102,31.573539 30.6535395,31.7288555 L30.9797513,32.1616477 C30.9832589,32.1633929 27.7983099,32.7794237 26.1356824,32.877151 M41.0660077,24.0031656 C40.4521684,25.7622565 39.5910395,27.2159497 38.4352679,28.4497565 C36.4762436,30.5351867 33.9384566,31.4060065 31.9443559,31.9295455 C31.9215561,31.936526 31.8987564,31.9417614 31.8742028,31.9469968 L31.8970026,31.8300731 C31.9092793,31.7550325 31.9250638,31.6799919 31.9390944,31.601461 C31.9759247,31.4164773 32.0162628,31.2262581 32.0390625,31.0238231 C32.135523,30.2175731 32.2372449,29.3502435 32.3231824,28.4811688 C32.3845663,27.8511769 32.4617347,27.0658685 32.4968112,26.3084821 C32.4985651,26.2491477 32.5003189,26.1898133 32.5020727,26.1304789 C33.7279974,25.715138 34.9188457,25.2631494 36.0640944,24.7553166 C38.0932717,23.8548295 39.9821429,22.8984984 41.6500319,21.8566558 C41.4939413,22.5826299 41.3080357,23.3051136 41.0660077,24.0031656 M47.078125,11.1502841 C46.9343112,11.9984172 46.5993304,12.8849432 46.3029337,13.7627435 C45.8960459,14.9686282 44.8665497,16.2216315 43.6564094,17.4711445 L43.651148,17.4746347 C43.5687181,15.6387581 43.2547832,13.7714692 42.7075893,11.8169237 C42.134088,9.76988636 41.1782526,7.93400974 39.8646365,6.35815747 C39.6892538,6.14699675 39.4963329,5.95154221 39.2999043,5.76306818 C39.9207589,5.77702922 40.5310906,5.80146104 41.1151148,5.84683442 C42.7461735,5.97771916 44.0475128,6.33023539 45.1191008,6.83632305 C45.490912,7.01258117 45.8416773,7.1836039 45.9697066,7.45933442 C46.4327168,8.4575487 47.2763074,9.97930195 47.078125,11.1502841" id="Shape"></path>
                                    <path d="M22.5017538,35.7548701 C22.0562819,35.7548701 21.6932398,35.7374188 21.3600128,35.6972808 C20.8952487,35.6396916 20.4532844,35.4965909 20.0271046,35.3569805 L19.6763393,35.2435471 C19.073023,35.0480925 18.4504145,34.8474026 17.8506059,34.5856331 C17.0876913,34.2523133 16.3352997,33.8736201 15.6074617,33.5071429 L15.0462372,33.2244318 C14.7375638,33.0691153 14.4306441,32.891112 14.1061862,32.6747159 C13.573023,32.3274351 13.1556122,32.0377435 12.7873087,31.7637581 C12.1804847,31.3135146 11.4877232,30.7707792 10.9528061,30.0343344 L10.6879783,29.8982143 C10.5546875,29.8231737 10.4266582,29.7516234 10.3056441,29.6713474 L10.2512755,29.6381899 C10.1179847,29.557914 9.9198023,29.4375 9.85491071,29.1966721 C9.76020408,28.8371753 9.60235969,28.496875 9.44276148,28.1775162 C7.79241071,27.8267451 6.46476403,27.3765016 5.38265306,26.804099 C3.62181122,25.8687094 2.41517857,24.9752029 1.58561862,23.9944399 C0.868303571,23.1410714 0.850765306,22.0992289 0.917410714,21.2877435 C0.991071429,20.3715503 1.59438776,19.4518669 2.17490434,18.6700487 C3.05006378,17.492086 4.3671875,16.3420455 6.09119898,15.2495942 C6.90672832,14.736526 7.75908801,14.2234578 8.56409439,13.7435471 C8.55883291,13.6650162 8.55707908,13.58125 8.56584821,13.4939935 C8.59040179,13.2426948 8.65529337,13.0001218 8.71492347,12.7854708 C8.73947704,12.6929789 8.76578444,12.600487 8.78683036,12.5045049 L8.85172194,12.2305195 L9.12356505,12.183401 C9.14110332,12.1799107 9.16214923,12.1781656 9.18494898,12.1746753 C9.30420918,11.8902192 9.47959184,11.6668425 9.6356824,11.4678977 C9.74968112,11.3247971 9.85491071,11.1904221 9.92857143,11.0508117 C10.0074936,10.8989854 10.0864158,10.7471591 10.1635842,10.5935877 L10.2617985,10.4016234 C10.3845663,10.1625406 10.5073342,9.92520292 10.6318559,9.68612013 C10.6879783,9.57966721 10.8352997,9.2987013 11.1544962,9.2987013 C11.2281569,9.2987013 11.3018176,9.31440747 11.3737245,9.34756494 C11.6946747,9.09801136 11.9454719,8.75771104 12.2085459,8.39995942 C12.3944515,8.14866071 12.6049107,7.86245942 12.8522003,7.60767045 C13.0170599,7.43664773 13.1801658,7.26387987 13.3432717,7.09111201 C13.7764668,6.63737825 14.2114158,6.18015422 14.6674107,5.74736201 C14.8322704,5.59030032 15.0164222,5.49606331 15.1935587,5.40531656 C15.3426339,5.32853084 15.4583865,5.27094156 15.5373087,5.19939123 C15.6197385,5.12609578 15.7021684,5.01266234 15.7881059,4.89224838 C15.9021046,4.73169643 16.0213648,4.56765422 16.191486,4.4262987 C16.2353316,4.38965097 16.2791773,4.34951299 16.3212691,4.309375 C16.5317283,4.12090097 16.8123406,3.86087662 17.2350128,3.81899351 C17.2420281,3.81026786 17.2507972,3.80503247 17.2578125,3.79630682 C17.3156888,3.74046266 17.3630421,3.69508929 17.4103954,3.66018669 L17.5366709,3.56594968 L17.9418048,3.59561688 L18.0996492,3.28323864 L18.253986,3.22564935 C18.294324,3.20994318 18.334662,3.19772727 18.3785077,3.18551136 C18.4030612,3.17853084 18.4293686,3.17155032 18.4416454,3.16631494 C18.7555804,2.89931006 19.0133929,2.68116883 19.285236,2.49618506 L19.0397003,2.47873377 L19.8043686,2.18904221 C20.09375,2.0424513 20.4445153,1.90982143 20.8934949,1.77719156 L21.0636161,1.71436688 C21.2249681,1.65154221 21.3898278,1.5869724 21.5581952,1.53461851 C22.3772321,1.28681006 23.4663584,0.984902597 24.6379145,0.864488636 C24.8185587,0.847037338 25.0009566,0.848782468 25.1956314,0.854017857 L25.2359694,0.854017857 C25.3026148,0.855762987 25.371014,0.857508117 25.4411671,0.857508117 L26.0199298,0.857508117 L25.9585459,1.05296266 L26.0357143,1.05296266 L26.0444834,0.881939935 L26.3075574,0.883685065 C26.4583865,0.883685065 26.6092156,0.880194805 26.7617985,0.876704545 L26.8670281,0.874959416 C26.9897959,0.873214286 27.1125638,0.869724026 27.2353316,0.869724026 C27.787787,0.869724026 28.4384566,0.909862013 29.071588,1.21176948 C29.0908801,1.22049513 29.1154337,1.22922078 29.1417411,1.23794643 L29.6065051,1.31647727 C32.1074617,1.71262175 34.4382972,2.74748377 36.7270408,4.47516234 L36.9094388,4.46818182 L37.0532526,4.60779221 L38.1529018,4.62349838 L38.2107781,4.56416396 L38.2984694,4.62524351 L39.0648916,4.63571429 L39.1753827,4.61826299 L39.1946747,4.63745942 C39.34375,4.64618506 39.4875638,4.65840097 39.6313776,4.67061688 C39.8681441,4.69330357 40.1136798,4.71599026 40.3679847,4.71599026 C40.6941964,4.71599026 40.9958546,4.68108766 41.3168048,4.60604708 C41.3588967,4.5955763 41.3992347,4.58685065 41.4430804,4.57463474 C41.3466199,4.54147727 41.2203444,4.51355519 41.1045918,4.48912338 C40.9397321,4.45422078 40.7538265,4.41582792 40.5837054,4.34776786 L39.8909439,4.07727273 L40.6345663,4.08076299 C40.7397959,4.08076299 40.8204719,4.07901786 40.8871173,4.07727273 L41.0169005,4.0755276 C41.0677615,4.0755276 41.1116071,4.07727273 41.1466837,4.08425325 C42.2936862,4.25004058 43.3109056,4.55369318 44.4456314,5.06850649 C45.1138393,5.37215909 45.6154337,5.7525974 46.0994898,6.11907468 C46.3853635,6.33547078 46.6817602,6.56059253 47.0062181,6.76477273 C47.9041773,7.32495942 48.3093112,8.04744318 48.7091837,8.86416396 C48.7512755,8.94967532 48.8056441,9.03344156 48.8582589,9.11895292 C48.9599809,9.28299513 49.0669643,9.45401786 49.1160714,9.65121753 C49.3142538,10.4539773 49.3703763,11.3317776 49.2861926,12.2584416 C49.191486,13.2967938 48.9143814,14.2601055 48.4408482,15.2042208 C47.8182398,16.4519886 47.0184949,17.5758523 45.996014,18.6438718 C45.4330357,19.2319805 44.7034439,19.8654627 43.7669005,20.5739854 C43.7441008,21.5355519 43.7055166,22.4761769 43.5161033,23.4150568 C43.3214286,24.3818588 43.0478316,25.4079951 42.7058355,26.4655438 C42.4497768,27.2508523 42.1305804,27.9855519 41.7552615,28.6487013 C41.4816645,29.1338474 41.1414222,29.5736201 40.8152105,29.9994318 L40.7766263,30.0500406 C40.6608737,30.1983766 40.546875,30.3484578 40.4363839,30.498539 C40.3557079,30.6032468 40.1452487,30.8370942 39.8821747,30.8405844 C39.7699298,31.2576705 39.4524872,31.5107143 39.010523,31.5368912 L38.7790179,31.5508523 C38.100287,32.0918425 37.3496492,32.5071834 36.6972258,32.8562094 C35.6764987,33.3989448 34.4786352,34.0027597 33.1615115,34.3029221 C32.0548469,34.557711 30.9394133,34.7618912 29.8608099,34.9590909 L28.9137436,35.135349 C28.5875319,35.1964286 28.2578125,35.2435471 27.9403699,35.2871753 C27.473852,35.3517451 26.9459503,35.4232955 26.4496173,35.5541802 C25.7638712,35.7321834 25.0833865,35.7583604 24.4502551,35.7583604 L23.9188457,35.7566153 C23.622449,35.7513799 23.3313138,35.7478896 23.0384247,35.7566153 L22.9174107,35.7583604 C22.7806122,35.753125 22.6403061,35.7548701 22.5017538,35.7548701 L22.5017538,35.7548701 Z M9.08673469,12.4783279 L9.06568878,12.5708198 C9.0411352,12.6702922 9.01482781,12.7645292 8.98852041,12.8605114 C8.93415179,13.0629464 8.87101403,13.2933036 8.84996811,13.5219156 C8.83944515,13.621388 8.84646046,13.7191153 8.85522959,13.8028815 L8.86399872,13.8936282 L8.78683036,13.9390016 C7.96253189,14.4311282 7.08211097,14.9581575 6.24378189,15.4869318 C4.54958546,16.5601867 3.25701531,17.6875406 2.40465561,18.835836 C1.88026148,19.5408685 1.26992985,20.4570617 1.20153061,21.3069399 C1.10857781,22.4482549 1.29097577,23.1951705 1.80484694,23.807711 C2.60985332,24.7588068 3.78842474,25.6296266 5.5176977,26.5475649 C6.58928571,27.1147321 7.91517857,27.5597403 9.57079082,27.9087662 L9.63919005,27.9244724 L9.67075893,27.9855519 C9.84614158,28.3363231 10.0267857,28.711526 10.1337691,29.1216315 C10.1670918,29.2507711 10.2898597,29.3258117 10.3968431,29.3903815 L10.458227,29.4270292 C10.5792411,29.5055601 10.7002551,29.5753653 10.8212691,29.6434253 L11.1650191,29.8371347 C11.6771365,30.5561282 12.359375,31.0883929 12.9591837,31.533401 C13.3204719,31.8038961 13.734375,32.0900974 14.2640306,32.4356331 C14.5779656,32.6433036 14.8761161,32.8178166 15.1742666,32.9678977 L15.7354911,33.2506088 C16.4598214,33.6153409 17.2104592,33.992289 17.9663584,34.3238636 C18.5521365,34.5786526 19.1677296,34.7793425 19.7640306,34.9713068 L20.1130421,35.0847403 C20.5304528,35.2208604 20.9583865,35.3604708 21.3968431,35.4145698 C21.7177934,35.4547078 22.0685587,35.4721591 22.5035077,35.4721591 C22.6403061,35.4721591 22.7788584,35.470414 22.9156569,35.4669237 L23.0349171,35.4651786 C23.3278061,35.4581981 23.6259566,35.4634334 23.9241071,35.4651786 L24.4520089,35.4686688 C25.0658482,35.4686688 25.7235332,35.4459821 26.3777105,35.2732143 C26.8933355,35.1388393 27.4282526,35.0655438 27.9017857,34.9992289 C28.2157207,34.9556006 28.5419324,34.9102273 28.8628827,34.8491477 L29.809949,34.6746347 C30.8850446,34.4756899 31.9969707,34.2732549 33.0983737,34.0184659 C34.3804209,33.7252841 35.5589923,33.1336851 36.5621811,32.5996753 C37.2146046,32.2506494 37.9669962,31.8353084 38.6352041,31.2960633 L38.6702806,31.2681412 L38.9947385,31.2489448 C39.3490115,31.2280032 39.5735013,31.0238231 39.6261161,30.6747971 L39.6524235,30.4967938 L39.8944515,30.552638 C39.990912,30.5508929 40.122449,30.4339692 40.2066327,30.3222808 C40.3171237,30.1721997 40.4311224,30.0221185 40.5486288,29.8702922 L40.5731824,29.8371347 C40.9081633,29.4025974 41.2396365,28.9715503 41.5044643,28.5021104 C41.8692602,27.8564123 42.1814413,27.139164 42.4304847,26.3713068 C42.770727,25.325974 43.0408163,24.3103084 43.2337372,23.3539773 C43.4231505,22.4150974 43.458227,21.4640016 43.479273,20.4937094 L43.4810268,20.4239042 L43.5353954,20.3837662 C44.4859694,19.6665179 45.2225765,19.0312906 45.7855548,18.4431818 C46.7887436,17.397849 47.5727041,16.2931818 48.1812819,15.073336 C48.6390306,14.1606331 48.9056122,13.2304789 48.9968112,12.2287744 C49.0809949,11.3195617 49.0266263,10.4976055 48.8337054,9.71578734 C48.796875,9.56221591 48.7074298,9.41737013 48.6109694,9.2637987 C48.5530931,9.17130682 48.4952168,9.07881494 48.4478635,8.98457792 C48.0672832,8.20625 47.6831952,7.52041396 46.8501276,6.99862013 C46.5133929,6.78745942 46.2134885,6.56059253 45.9223533,6.34070617 C45.4277742,5.96550325 44.9630102,5.61298701 44.3228635,5.32155032 C43.4547194,4.92715097 42.6567283,4.6601461 41.8131378,4.48388799 C41.841199,4.51704545 41.8622449,4.55543831 41.8762755,4.59906656 L41.9271365,4.74565747 L41.5991709,4.83465909 C41.5184949,4.85560065 41.4483418,4.87479708 41.3816964,4.88875812 C41.0379464,4.96728896 40.7169962,5.00568182 40.3679847,5.00568182 C40.0996492,5.00568182 39.848852,4.98299513 39.606824,4.96030844 C39.4489796,4.9463474 39.292889,4.93238636 39.1297832,4.92366071 L39.1297832,4.92540584 L36.9339923,4.89573864 L36.7971939,4.76136364 L36.634088,4.76659903 L36.59375,4.73518669 C34.3313138,3.01623377 32.0285395,1.9900974 29.5591518,1.59918831 L29.03125,1.50146104 C29.0154656,1.49797078 28.9821429,1.48400974 28.950574,1.4700487 C28.3665497,1.19082792 27.7562181,1.15418019 27.2353316,1.15418019 C27.1143176,1.15418019 26.9933036,1.15592532 26.8722895,1.15941558 L26.7670599,1.16116071 C26.6162309,1.16465097 26.4671556,1.16814123 26.3145727,1.16814123 L26.3058036,1.34090909 L25.5656888,1.34090909 L25.6288265,1.14370942 L25.4394133,1.14370942 C25.3675064,1.14370942 25.2955995,1.14196429 25.2289541,1.14196429 L25.1868622,1.14021916 C25.0027105,1.13498377 24.8343431,1.13149351 24.6677296,1.14894481 C23.520727,1.26761364 22.449139,1.56254058 21.6423788,1.8086039 C21.479273,1.85746753 21.3214286,1.91854708 21.1705995,1.97788149 L20.9759247,2.04943182 C20.5427296,2.17857143 20.2059949,2.30422078 19.9201212,2.44906656 L19.8026148,2.5101461 C19.3974809,2.7317776 19.0852997,2.99354708 18.6135204,3.38794643 L18.5766901,3.41412338 C18.5381059,3.43681006 18.466199,3.45426136 18.4504145,3.45949675 C18.4223533,3.46996753 18.3872768,3.48043831 18.3522003,3.49265422 L18.3030931,3.51185065 L18.1101722,3.89228896 L17.6243622,3.85738636 L17.5840242,3.88705357 C17.5454401,3.91497565 17.5068559,3.95336851 17.4700255,3.99001623 C17.4314413,4.02666396 17.4016263,4.05458604 17.3788265,4.07029221 L17.3455038,4.09646916 L17.3016582,4.09821429 C16.9526467,4.11915584 16.7211416,4.33206169 16.5159439,4.51879058 C16.4685906,4.56241883 16.4229911,4.60604708 16.3738839,4.64443994 C16.2335778,4.7648539 16.1248406,4.91318994 16.0213648,5.05803571 C15.9301658,5.18717532 15.8337054,5.31806006 15.7249681,5.41404221 C15.6197385,5.50653409 15.4899554,5.57284903 15.3531569,5.64265422 C15.1637436,5.74212662 14.9988839,5.82414773 14.8638393,5.95503247 C14.4131059,6.38084416 13.9799107,6.83632305 13.5607462,7.27784091 C13.3871173,7.46107955 13.2240115,7.6338474 13.0556441,7.80661526 C12.8223852,8.04744318 12.6189413,8.32491883 12.4382972,8.56749188 C12.1559311,8.95316558 11.8612883,9.35105519 11.4684311,9.63027597 L11.3912628,9.68612013 L11.3088329,9.63551136 C11.0966199,9.50113636 10.9668367,9.66168831 10.8861607,9.81700487 C10.7598852,10.0543425 10.6388712,10.2934253 10.5178571,10.530763 L10.4196429,10.7227273 C10.3407207,10.8762987 10.2617985,11.0298701 10.1811224,11.1834416 C10.0951849,11.3457386 9.97592474,11.4975649 9.86192602,11.6424107 C9.70232781,11.8448458 9.52168367,12.0752029 9.42171556,12.3561688 L9.38663903,12.4504058 L9.24984056,12.4538961 C9.22177934,12.4573864 9.19547194,12.4591315 9.17442602,12.4643669 L9.08673469,12.4783279 Z M25.1377551,33.0446834 C24.6852679,33.0446834 24.2205038,33.0307224 23.7715242,33.0185065 L23.713648,33.0167614 C23.3734056,33.0062906 23.0331633,32.9958198 22.6946747,32.9905844 L22.540338,32.9888393 C21.9545599,32.9801136 21.377551,32.971388 20.8128189,32.9434659 C20.6707589,32.9364854 20.5304528,32.9050731 20.3480548,32.8649351 L20.2393176,32.8405032 L20.1902105,32.7183442 L20.184949,32.4426136 C20.1796875,32.1005682 20.174426,31.7899351 20.1937181,31.4827922 C20.2428253,30.6747971 20.2498406,29.7969968 20.2200255,28.7202516 L20.2165179,28.5858766 L20.3515625,28.5754058 C23.7574936,28.2752435 26.9249043,27.6836445 30.0326849,26.7657062 C30.2869898,26.6889205 30.5430485,26.6138799 30.7973533,26.535349 L30.9937819,26.4742695 L30.9832589,26.6784497 C30.9095982,28.0204545 30.7780612,29.2036526 30.578125,30.2961039 C30.5500638,30.4531656 30.5044643,30.6119724 30.457111,30.7795049 C30.4290497,30.8737419 30.4044962,30.9627435 30.3781888,31.0587256 L30.3571429,31.1355114 L30.7710459,31.641599 L31.2375638,32.259375 L31.0148278,32.3030032 C30.9832589,32.3099838 27.8000638,32.9225244 26.1462054,33.0202516 C25.8427934,33.0359578 25.513074,33.0446834 25.1377551,33.0446834 L25.1377551,33.0446834 Z M20.4708227,32.6014205 C20.6076212,32.6310877 20.7198661,32.6537744 20.8250957,32.6590097 C21.3845663,32.6869318 21.9580676,32.6956575 22.5140306,32.7043831 L22.6946747,32.7061282 C23.0366709,32.7131088 23.3769133,32.7218344 23.7171556,32.7323052 L23.7785395,32.7340503 C24.5923151,32.756737 25.4709821,32.7724432 26.1251594,32.7357955 C27.5054209,32.6555195 29.9748087,32.2070211 30.7289541,32.0656656 L30.0379464,31.2035714 L30.0940689,30.9871753 C30.1203763,30.8877029 30.1466837,30.7969562 30.1747449,30.7079545 C30.223852,30.5334416 30.2676977,30.3885958 30.2922513,30.2454951 C30.4781569,29.2193588 30.6061862,28.1112013 30.6798469,26.8651786 C30.4904337,26.9227679 30.2992666,26.978612 30.1080995,27.0362013 C27.0213648,27.9471591 23.8802615,28.5387581 20.5041454,28.8441558 C20.5304528,29.8685471 20.5199298,30.7149351 20.4743304,31.4967532 C20.4567921,31.7934253 20.4620536,32.0988231 20.4673151,32.4234172 L20.4708227,32.6014205 Z M18.9257015,32.9364854 L18.6082589,32.8056006 C18.3206314,32.6974026 18.0505421,32.5979302 17.7857143,32.4810065 C16.2511161,31.7986607 14.6656569,31.0918831 13.309949,29.9540584 C12.7908163,29.5195211 12.3278061,29.0605519 11.8911033,28.550974 L11.6525829,28.2734984 L12.015625,28.3188718 C13.3274872,28.4794237 14.714764,28.5788961 16.0178571,28.6609172 C16.9298469,28.7185065 17.8839286,28.725487 18.8222258,28.685349 L18.9765625,28.6783685 L18.971301,28.8319399 C18.9607781,29.1338474 18.9502551,29.4287744 18.9397321,29.7167208 L18.930963,29.9296266 C18.9029018,30.660836 18.9099171,31.3920455 18.9169324,32.1023133 L18.9257015,32.9364854 Z M12.3541135,28.6417208 C12.7066327,29.0308847 13.0837054,29.3921266 13.4941008,29.7359172 C14.8182398,30.8458198 16.3879145,31.5456169 17.9032207,32.219237 C18.1364796,32.3239448 18.3802615,32.4164367 18.638074,32.5124188 L18.6328125,32.1023133 C18.6257972,31.3903003 18.6187819,30.6538555 18.6485969,29.9174107 L18.6556122,29.7045049 C18.6661352,29.4654221 18.6731505,29.222849 18.6819196,28.9750406 C17.7839605,29.0099432 16.8737245,28.9994724 16.0020727,28.9436282 C14.816486,28.8668425 13.5607462,28.7778409 12.3541135,28.6417208 L12.3541135,28.6417208 Z M31.7146046,32.1354708 L31.7566964,31.8038961 C31.7672194,31.7428166 31.78125,31.6799919 31.7935268,31.6154221 L31.8005421,31.5752841 C31.8391263,31.3833198 31.8759566,31.2018263 31.8970026,31.0081169 C31.9882015,30.2472403 32.0951849,29.3484984 32.1793686,28.4672078 C32.2372449,27.879099 32.3179209,27.0711039 32.3529974,26.3015016 L32.3635204,26.0275162 L32.4564732,25.9961039 C33.7595663,25.554586 34.9223533,25.1060877 36.0062181,24.6244318 C38.2002551,23.6523945 40.020727,22.7065341 41.5746173,21.7344968 L41.8622449,21.5547484 L41.790338,21.8845779 C41.6026786,22.7362013 41.4150191,23.4255276 41.1975446,24.0467938 C40.5784439,25.8250812 39.7067921,27.2979708 38.5369898,28.5439935 C36.5516582,30.6573458 33.9893176,31.5351461 31.9794324,32.0639205 L31.7146046,32.1354708 Z M32.6441327,26.2334416 L32.6423788,26.3137175 C32.6055485,27.0903003 32.5248724,27.9017857 32.4669962,28.4951299 C32.3793048,29.3799107 32.2758291,30.2786526 32.1828763,31.0412744 C32.1600765,31.2402192 32.1214923,31.4321834 32.084662,31.6154221 L32.074139,31.6695211 C32.0688776,31.6956981 32.0636161,31.7236201 32.0566008,31.7497971 C34.0103635,31.2262581 36.4446747,30.3589286 38.3300383,28.3502841 C39.4735332,27.1339286 40.324139,25.6941964 40.9292092,23.9543019 C41.113361,23.4255276 41.2782207,22.8461445 41.4395727,22.1533279 C39.9382972,23.0695211 38.1967474,23.9647727 36.1237245,24.882711 C35.0591518,25.3573864 33.9191645,25.7989042 32.6441327,26.2334416 L32.6441327,26.2334416 Z M16.4142219,27.8633929 C16.272162,27.8633929 16.1371173,27.8494318 16.0020727,27.8354708 L15.8424745,27.8197646 C14.4359056,27.7010958 12.6101722,27.5213474 10.9528061,27.1950081 L10.893176,27.1862825 L10.8598533,27.1339286 C10.2091837,26.0833604 9.77774235,25.0694399 9.53746811,24.0328328 C9.35682398,23.2510146 9.28140944,22.436039 9.32350128,21.6769075 C9.39365434,20.3837662 9.54272959,19.0347808 9.76371173,17.6683442 C10.1811224,15.1047484 11.2018495,12.7174107 12.8907844,10.3719562 C14.1447704,8.62857143 15.6214923,7.1487013 17.2823661,5.97946429 C19.4132653,4.47690747 21.6757015,3.57816558 24.0100446,3.30418019 C24.2959184,3.27102273 24.6045918,3.25531656 24.9518495,3.25531656 C25.4815051,3.25531656 26.0497449,3.29545455 26.503986,3.32686688 C26.7986288,3.34780844 27.0915179,3.36875 27.3861607,3.38271104 C27.8298788,3.40190747 28.2981505,3.43855519 28.7313457,3.57467532 C30.0098852,3.97256494 31.1323342,4.3617289 32.1635842,4.76310877 C32.4862883,4.88875812 32.7861926,5.07374188 33.1018814,5.26919643 L33.0685587,5.41578734 L33.1439732,5.29537338 C33.3193559,5.40531656 33.5035077,5.51525974 33.6929209,5.61647727 C34.5645727,6.08068182 35.4169324,6.63388799 36.2254464,7.26387987 C36.6323342,7.57800325 36.9287309,7.83279221 37.1830357,8.08758117 C37.6197385,8.52386364 38.0441645,8.95665584 38.4142219,9.42784091 C39.3104273,10.5656656 40.0733418,11.834375 40.7503189,13.3055195 C41.2378827,14.3613231 41.628986,15.2461039 41.8920599,16.2233766 C42.1498724,17.1814529 42.2743941,18.0400568 42.2673788,18.8463068 L42.2673788,18.9143669 L42.214764,18.95625 C41.9095982,19.1988231 41.5939094,19.4361607 41.2799745,19.6612825 C40.6626276,20.1028003 39.9225128,20.4518263 39.1367985,20.823539 C38.8544324,20.957914 38.5632972,21.0940341 38.2704082,21.240625 L37.5881696,21.9037744 C37.1058673,22.315625 36.5165816,22.6367289 35.744898,22.907224 C35.0644133,23.1428166 34.3050064,23.4185471 33.8788265,23.7204545 C33.5175383,23.9752435 33.1492347,24.1672078 32.6792092,24.3434659 L32.3968431,24.4446834 L32.3950893,24.2422484 C32.3933355,23.0363636 32.347736,21.8008117 32.3056441,20.7380276 C32.2705676,19.8480114 32.2758291,18.9038961 32.2793367,18.1465097 L32.2793367,17.9737419 C32.2810906,17.6910308 32.2810906,17.4065747 32.2810906,17.1238636 C32.2810906,16.8132305 32.2828444,16.5025974 32.2845982,16.1919643 L32.286352,16.040138 C32.2898597,15.7137987 32.2916135,15.3892045 32.2916135,15.0646104 C32.2916135,15.0646104 32.2389987,14.3491071 32.1951531,13.8988636 C32.1565689,13.5166802 32.114477,13.2269886 32.0671237,12.9198458 C32.033801,12.7034497 31.9987245,12.4783279 31.9654018,12.2113231 L31.9355867,11.96875 C31.861926,11.3579545 31.6672513,11.0734984 31.3235013,11.0734984 C31.2919324,11.0734984 31.2586097,11.0752435 31.2235332,11.0769886 C30.8639987,11.0996753 30.537787,11.1851867 30.1922832,11.2741883 C29.8450255,11.3649351 29.4854911,11.4591721 29.1242028,11.4801136 C28.3367347,11.525487 27.5527742,11.5708604 26.7670599,11.6179789 C26.28125,11.6493912 25.7954401,11.6825487 25.3096301,11.7174513 L24.9606186,11.7418831 C24.0047832,11.8099432 23.015625,11.8797484 22.0387436,11.9268669 C21.7177934,11.9425731 21.3757972,11.9495536 20.963648,11.9495536 C20.7391582,11.9495536 20.5146684,11.9478084 20.2849171,11.9460633 L19.8254145,11.9408279 C19.5904018,11.9390828 19.3501276,11.9355925 19.1045918,11.9355925 L19.0625,11.9373377 C18.981824,12.0943994 18.880102,12.3648945 18.9169324,12.5132305 C19.0239158,12.9390422 19.0625,13.0315341 19.0712691,13.0489854 L19.0888074,13.0873782 L19.0852997,13.1432224 C19.0835459,13.1484578 19.0835459,13.1589286 19.0835459,13.1903409 C19.0817921,14.8133117 19.0344388,16.5095779 18.9905931,18.0068994 L18.971301,18.7450893 C18.9590242,19.1953328 18.9397321,19.6473214 18.9204401,20.0975649 L18.9081633,20.3924919 C18.880102,21.0800731 18.850287,21.792086 18.8432717,22.4918831 C18.8327487,23.5372159 18.8608099,24.4830763 18.930963,25.3818182 C18.9800702,25.9891234 19.0011161,26.6383117 19.0011161,27.367776 L19.0011161,27.4934253 L18.8748406,27.5091315 C18.4609375,27.5579951 18.0487883,27.6068588 17.6348852,27.6574675 C17.5752551,27.6644481 17.5121173,27.6661932 17.4507334,27.6679383 C17.3770727,27.6696834 17.2946429,27.6714286 17.2560587,27.6888799 C16.9649235,27.8075487 16.7000957,27.8633929 16.4142219,27.8633929 L16.4142219,27.8633929 Z M11.0703125,26.9314935 C12.6978635,27.247362 14.4867666,27.421875 15.8670281,27.5387987 L16.0318878,27.55625 C16.1564094,27.5684659 16.2809311,27.5824269 16.4142219,27.5824269 C16.6632653,27.5824269 16.8877551,27.5353084 17.1420599,27.4288555 C17.2297513,27.3922078 17.3367347,27.3887175 17.4402105,27.3869724 C17.4928253,27.3852273 17.5454401,27.3852273 17.5945472,27.3782468 C17.9663584,27.3311282 18.3381696,27.2892451 18.7117347,27.2438718 C18.7099809,26.5719968 18.6889349,25.9699269 18.6433355,25.40625 C18.5714286,24.4987825 18.5433673,23.5441964 18.5556441,22.490138 C18.5626594,21.7851055 18.5942283,21.0730925 18.6222895,20.380276 L18.6345663,20.085349 C18.6521046,19.6368506 18.6713967,19.1866071 18.6854273,18.7381088 L18.7047194,17.9999188 C18.7468112,16.5043425 18.7941645,14.8098214 18.8011798,13.1903409 C18.8011798,13.1693994 18.8029337,13.1519481 18.8029337,13.1397321 C18.7818878,13.083888 18.7380421,12.9530032 18.6450893,12.5812906 C18.5644133,12.2636769 18.8046875,11.8186688 18.8327487,11.7680601 L18.8765944,11.7191964 L18.981824,11.6476461 L19.1098533,11.6476461 C19.355389,11.6476461 19.5956633,11.6493912 19.8341837,11.6528815 L20.2919324,11.6563718 C20.5199298,11.6581169 20.7444196,11.6616071 20.9689094,11.6616071 C21.3757972,11.6616071 21.7125319,11.6546266 22.0299745,11.6389205 C23.0033482,11.5918019 23.9907526,11.5219968 24.9448342,11.4556818 L25.2920918,11.43125 C25.7796556,11.3980925 26.2672194,11.3631899 26.7530293,11.3335227 C27.5404974,11.2846591 28.3262117,11.2392857 29.111926,11.1939123 C29.4451531,11.176461 29.7889031,11.0857143 30.1238839,10.9984578 C30.4676339,10.9094562 30.8219069,10.8169643 31.1796875,10.7925325 C31.2533482,10.7907873 31.2919324,10.7872971 31.3287628,10.7872971 C31.8303571,10.7872971 32.1302615,11.1729708 32.2232143,11.9321023 L32.2530293,12.1746753 C32.286352,12.4399351 32.3196747,12.6598214 32.3529974,12.8762175 C32.4003508,13.1851055 32.4441964,13.4800325 32.4827806,13.8691964 C32.5266263,14.3246753 32.5792411,15.0523945 32.5792411,15.0523945 C32.5792411,15.3874594 32.5774872,15.7155438 32.5739796,16.0418831 L32.5722258,16.1919643 C32.5722258,16.5025974 32.5687181,16.8132305 32.5704719,17.1238636 C32.5722258,17.4065747 32.5704719,17.6910308 32.5687181,17.9737419 L32.5669643,18.1430195 C32.5634566,18.8986607 32.5581952,19.8410308 32.5932717,20.7240666 C32.6318559,21.7292614 32.6757015,22.8897727 32.680963,24.0345779 C33.0790816,23.8775162 33.4000319,23.7082386 33.712213,23.484862 C34.1682079,23.162013 34.9521684,22.8758117 35.6501913,22.6349838 C36.3867985,22.3767045 36.9462691,22.0730519 37.412787,21.6769075 L38.1230867,20.9928166 C38.4247449,20.8409903 38.7228954,20.7013799 39.0157844,20.5635146 C39.7892219,20.1987825 40.5188138,19.8549919 41.1151148,19.4274351 C41.4080038,19.2197646 41.699139,18.9998782 41.9832589,18.7730114 C41.9815051,18.0121347 41.8622449,17.2006494 41.6167092,16.2931818 C41.3588967,15.3385958 40.9695472,14.4642857 40.4889987,13.4206981 C39.8225446,11.9704951 39.0701531,10.7209821 38.1897321,9.59886364 C37.8284439,9.13989448 37.4110332,8.71582792 36.9813457,8.28478084 C36.7340561,8.03871753 36.4481824,7.79265422 36.0500638,7.48376623 C35.2520727,6.86424513 34.4137436,6.31801948 33.5578763,5.86254058 C33.3632015,5.75783279 33.1755421,5.64265422 32.9931441,5.53271104 L32.9528061,5.50653409 C32.6493941,5.31806006 32.3600128,5.14180195 32.0601084,5.02313312 C31.0358737,4.62349838 29.9186862,4.23782468 28.647162,3.83993506 C28.2455357,3.71603084 27.7983099,3.68112825 27.3721301,3.66193182 C27.0757334,3.64797078 26.7793367,3.62528409 26.4846939,3.60434253 C26.0322066,3.57293019 25.472736,3.53279221 24.9518495,3.53279221 C24.6151148,3.53279221 24.3187181,3.54849838 24.0433673,3.57991071 C21.7581314,3.84691558 19.537787,4.7299513 17.4472258,6.20458604 C15.8144133,7.36160714 14.3604911,8.81704545 13.1257972,10.5359984 C11.4631696,12.8448052 10.4564732,15.1920049 10.0478316,17.7119724 C9.82684949,19.0679383 9.67952806,20.4081981 9.61112883,21.6908685 C9.57079082,22.4238231 9.6426977,23.2108766 9.81632653,23.968263 C10.044324,24.9560065 10.4547194,25.9262987 11.0703125,26.9314935 L11.0703125,26.9314935 Z M20.1674107,27.3555601 L20.1288265,26.5475649 C20.1060268,26.0624188 20.0814732,25.5755276 20.0639349,25.0903815 C20.0411352,24.4080357 20.1007653,23.7187094 20.1586416,23.0520698 L20.1954719,22.624513 C20.2445791,22.046875 20.265625,21.6001218 20.265625,21.1795455 C20.2638712,20.4867289 20.2568559,19.7956575 20.2498406,19.104586 C20.2410714,18.2145698 20.2323023,17.3280438 20.2358099,16.4397727 C20.2375638,15.8150162 20.2603635,15.1762987 20.2831633,14.5602679 L20.3094707,13.7993912 L20.4357462,13.7854302 C21.9422832,13.6423295 29.3714923,13.1275162 30.7587691,13.0716721 L30.8832908,13.0681818 L30.9043367,13.1903409 C30.9253827,13.3037744 30.9464286,13.4346591 30.9464286,13.5603084 C30.9446747,14.1815747 30.9411671,14.8028409 30.9341518,15.4258523 C30.9253827,16.4537338 30.9183673,17.3803977 30.9271365,18.3140422 C30.9341518,19.1551948 30.962213,20.0242695 30.9850128,20.7903815 C31.0043048,21.4605114 31.0235969,22.1323864 31.0358737,22.8007711 C31.0446429,23.3435065 31.0499043,23.9106737 31.0463967,24.4935471 L31.0463967,24.4935471 L31.0446429,24.6244318 L31.0446429,24.6785308 L31.042889,24.9036526 L30.6009247,25.0484984 C30.5448023,25.0676948 30.4851722,25.0921266 30.4237883,25.1165584 C30.2045599,25.2090503 29.9572704,25.2910714 29.7643495,25.2090503 C29.7205038,25.2282468 29.6573661,25.2544237 29.5942283,25.2823458 C29.5942283,25.2928166 29.5924745,25.3032873 29.5924745,25.312013 C29.5731824,25.4638393 29.3960459,25.5074675 29.1715561,25.5633117 C29.0628189,25.5912338 28.9751276,25.6121753 28.8856824,25.6331169 C28.7102997,25.675 28.526148,25.7186282 28.3577806,25.7744724 C26.7144452,26.3119724 24.9693878,26.7081169 23.0243941,26.9873377 C22.2351722,27.1007711 21.4021046,27.2107143 20.3270089,27.3398539 L20.1674107,27.3555601 Z M20.5848214,14.0576705 L20.5672832,14.5463068 C20.5444834,15.1850244 20.5199298,15.8185065 20.5199298,16.4397727 C20.518176,17.3262987 20.5251913,18.2110795 20.5339605,19.0958604 C20.5409758,19.7939123 20.5479911,20.4849838 20.5479911,21.1778003 C20.5497449,21.6071023 20.528699,22.060836 20.4795918,22.6471997 L20.4445153,23.0695211 C20.386639,23.7344156 20.3270089,24.4132711 20.3498087,25.0799107 C20.3691008,25.5633117 20.3919005,26.0502029 20.4147003,26.5336039 L20.4392538,27.0379464 C21.4389349,26.9157873 22.2299107,26.8128247 22.9787946,26.7046266 C24.9080038,26.4288961 26.635523,26.0362419 28.263074,25.5022321 C28.4454719,25.4428977 28.6331314,25.3975244 28.8155293,25.3556412 C28.9032207,25.3346997 28.9891582,25.3137581 29.0768495,25.2910714 C29.1066645,25.2840909 29.1417411,25.2753653 29.1750638,25.2666396 L29.0750957,25.2125406 L29.3697385,25.0659497 C29.7345344,24.9106331 29.7345344,24.9106331 29.769611,24.9106331 L29.8117028,24.9106331 L29.8485332,24.9350649 C29.9432398,24.9996347 30.1308992,24.9280844 30.3097895,24.854789 C30.3466199,24.8390828 30.3834503,24.8233766 30.4202806,24.8094156 L30.4027423,24.694237 L30.5220026,24.6191964 L30.7570153,24.5633523 C30.760523,23.9560471 30.7570153,23.3679383 30.7482462,22.8042614 C30.7377232,22.1358766 30.7166773,21.4674919 30.6973852,20.7991071 C30.6745855,20.03125 30.6482781,19.1621753 30.6412628,18.3157873 C30.6324936,17.3786526 30.6395089,16.4502435 30.6482781,15.422362 C30.6535395,14.8010958 30.6570472,14.1798295 30.658801,13.5603084 C30.658801,13.4957386 30.6517857,13.4294237 30.6430166,13.3613636 C29.0259885,13.4381494 22.2860332,13.9058442 20.5848214,14.0576705 L20.5848214,14.0576705 Z M9.09024235,26.7342938 L8.84821429,26.6714692 C8.08354592,26.4323864 7.42936862,26.172362 6.84709821,25.8721997 C6.13679847,25.5057224 5.52997449,25.0799107 4.94419643,24.6680601 L4.56361607,24.4010552 C3.13600128,23.4150568 2.59933036,22.2510552 2.96763393,20.9369724 C3.37452168,19.4902597 4.36543367,18.1290584 5.99824617,16.7783279 C6.63137755,16.254789 7.35570791,15.73125 8.20631378,15.179789 L8.50621811,14.9878247 L8.42378827,15.3316153 C8.33083546,15.7207792 8.2606824,16.1326299 8.20631378,16.5985795 C8.1817602,16.8027597 8.15545281,17.0069399 8.13089923,17.2146104 L8.11862245,17.3088474 C8.01690051,18.1150974 7.90991709,18.9475244 7.90465561,19.7799513 C7.89237883,22.0660714 8.42729592,24.2562094 9.02184311,26.4847403 L9.09024235,26.7342938 Z M8.07126913,15.6090909 C7.35395408,16.0855114 6.73309949,16.5409903 6.18064413,16.9982143 C4.59343112,18.3122971 3.63058036,19.6263799 3.24123087,21.0155032 C2.90449617,22.2161526 3.39030612,23.2475244 4.72672194,24.1706981 L5.10905612,24.4377029 C5.68781888,24.8425731 6.28762755,25.2631494 6.98038903,25.620901 C7.48373724,25.8809253 8.04320791,26.1095373 8.68861607,26.3224432 C8.10809949,24.142776 7.61001276,22.0137175 7.62228954,19.7799513 C7.62579719,18.9283279 7.73278061,18.0889205 7.83625638,17.2739448 L7.84853316,17.1779627 C7.87308673,16.9737825 7.89764031,16.7696023 7.92219388,16.5636769 C7.96253189,16.2233766 8.01163903,15.9075081 8.07126913,15.6090909 L8.07126913,15.6090909 Z M43.519611,17.7346591 L43.5073342,17.4833604 C43.4266582,15.650974 43.1197385,13.8116071 42.569037,11.8570617 C42.002551,9.82747565 41.0554847,8.00905032 39.7558992,6.44890422 C39.566486,6.22203734 39.3595344,6.01611201 39.2034439,5.86428571 L38.9421237,5.61298701 L39.3051658,5.61996753 C40.0382653,5.63741883 40.6170281,5.66534091 41.1291454,5.7054789 C42.690051,5.82938312 44.0159439,6.15746753 45.1822385,6.70718344 C45.5593112,6.88693182 45.9504145,7.07191558 46.1012436,7.39825487 C46.1626276,7.53088474 46.229273,7.67049513 46.299426,7.81708604 C46.7659439,8.78737825 47.4008291,10.1136769 47.2201849,11.1747159 C47.0974171,11.9006899 46.8360969,12.6580763 46.5835459,13.3910308 L46.4397321,13.8081169 C46.0819515,14.8674107 45.2541454,16.0261769 43.7598852,17.5688718 L43.7300702,17.5933036 L43.519611,17.7346591 Z M39.6559311,5.91314935 C39.7594069,6.0213474 39.869898,6.14001623 39.9751276,6.26741071 C41.3010204,7.86071429 42.2673788,9.71404221 42.8443878,11.7785308 C43.3670281,13.6388393 43.6721939,15.3961851 43.7756696,17.1430601 C45.0927934,15.7521916 45.8399235,14.6841721 46.167889,13.715625 L46.3117028,13.298539 C46.5607462,12.5760552 46.8185587,11.8291396 46.9395727,11.1258523 C47.1044324,10.1538149 46.4905931,8.87288961 46.0416135,7.93924513 C45.9697066,7.78916396 45.9013074,7.64780844 45.8416773,7.51517857 C45.7346939,7.2830763 45.3926977,7.11903409 45.0594707,6.9619724 C43.9264987,6.42621753 42.6321747,6.1086039 41.1063457,5.98644481 C40.6854273,5.95503247 40.2171556,5.93060065 39.6559311,5.91314935 L39.6559311,5.91314935 Z" id="Shape"></path>
                                    <path d="M33.8665497,23.0852273 L33.9068878,22.9979708 C33.8805804,23.0119318 33.8858418,23.0433442 33.8665497,23.0852273" id="Shape"></path>
                                    <path d="M33.9963329,23.1445617 L33.7367666,23.0258929 L33.7437819,23.0066964 C33.7507972,22.9770292 33.7700893,22.907224 33.8455038,22.8688312 L34.2120536,22.6855925 L33.9963329,23.1445617 Z" id="Shape"></path>
                                    <path d="M39.0596301,4.66363636 C39.091199,4.71599026 39.1069834,4.74391234 39.1245217,4.77357955 C39.4840561,4.67585227 39.7979911,4.79626623 40.3697385,4.51704545 C39.8313138,4.57637987 39.4559949,4.61826299 39.0596301,4.66363636" id="Shape"></path>
                                    <path d="M39.0561224,4.94111201 L38.828125,4.54671266 L39.0438457,4.52228084 C39.4402105,4.47690747 39.8155293,4.43502435 40.3557079,4.37743506 L41.1694834,4.28843344 L40.4346301,4.64618506 C40.0435268,4.83640422 39.7646684,4.85211039 39.5191327,4.86781656 C39.3893495,4.87479708 39.2788584,4.8817776 39.1631059,4.91318994 L39.0561224,4.94111201 Z" id="Shape"></path>
                                </g>
                                <rect id="Rectangle-2" x="0" y="0" width="50" height="50"></rect>
                            </g>
                        </g>
                    </g>
                </g>
            </g>
        </g>
    </g>
</svg>