<svg xmlns="http://www.w3.org/2000/svg" viewBox="0 0 114.05 19.13"><defs><style>.cls-1,.cls-2{fill:#fd675a;}.cls-1{fill-rule:evenodd;}</style></defs><title>자산 4</title><g id="레이어_2" data-name="레이어 2"><g id="bg"><g id="logo"><polygon class="cls-1" points="41.46 10.63 38.85 3.99 37.76 3.99 35.12 10.62 33.24 3.99 30.79 3.99 34.28 16.32 35.4 16.32 38.3 9.04 41.16 16.32 42.28 16.32 45.82 3.99 43.37 3.99 41.46 10.63"/><path class="cls-1" d="M53.83,3.71A6.33,6.33,0,0,0,48.3,6.94a6.54,6.54,0,0,0-.85,3.27,6.17,6.17,0,0,0,1.88,4.52,6.46,6.46,0,0,0,11-4.58,6.22,6.22,0,0,0-1.88-4.58,6.37,6.37,0,0,0-4.65-1.86m3.59,8.53A3.82,3.82,0,0,1,56,13.71a4.07,4.07,0,0,1-2.07.54,4,4,0,0,1-4-4.05,4.13,4.13,0,0,1,.53-2.1,4.09,4.09,0,0,1,3.49-2,4,4,0,0,1,2,.56,3.93,3.93,0,0,1,1.49,1.47A4,4,0,0,1,58,10.15a4.16,4.16,0,0,1-.53,2.1"/><path class="cls-1" d="M68.75,3.71a6.32,6.32,0,0,0-5.54,3.22,6.54,6.54,0,0,0-.85,3.27,6.17,6.17,0,0,0,1.88,4.52,6.3,6.3,0,0,0,4.6,1.87,6.23,6.23,0,0,0,4.57-1.88,6.25,6.25,0,0,0,1.88-4.57A6.22,6.22,0,0,0,73.4,5.57a6.37,6.37,0,0,0-4.65-1.86m3.59,8.53a3.81,3.81,0,0,1-1.47,1.47,4.08,4.08,0,0,1-2.07.54,4,4,0,0,1-4-4.05,4.14,4.14,0,0,1,.53-2.1,4.09,4.09,0,0,1,3.49-2,4,4,0,0,1,2,.56,3.93,3.93,0,0,1,1.49,1.47,4,4,0,0,1,.53,2.07,4.15,4.15,0,0,1-.53,2.1"/><polygon class="cls-1" points="77.34 3.99 77.34 6.33 81.14 6.33 76.48 16.32 84.21 16.32 84.21 13.97 80.18 13.97 84.8 3.99 77.34 3.99"/><path class="cls-1" d="M92.6,3.71a6.33,6.33,0,0,0-5.54,3.22,6.54,6.54,0,0,0-.85,3.27,6.17,6.17,0,0,0,1.88,4.52,6.3,6.3,0,0,0,4.6,1.87,6.23,6.23,0,0,0,4.57-1.88,6.25,6.25,0,0,0,1.87-4.57,6.22,6.22,0,0,0-1.88-4.58A6.37,6.37,0,0,0,92.6,3.71m3.59,8.53a3.82,3.82,0,0,1-1.47,1.47,4.08,4.08,0,0,1-2.07.54,4,4,0,0,1-4-4.05,4.14,4.14,0,0,1,.53-2.1,4.09,4.09,0,0,1,3.49-2,4,4,0,0,1,2,.56,3.92,3.92,0,0,1,1.49,1.47,4,4,0,0,1,.53,2.07,4.15,4.15,0,0,1-.53,2.1"/><path class="cls-1" d="M107.52,3.71A6.33,6.33,0,0,0,102,6.94a6.54,6.54,0,0,0-.85,3.27A6.18,6.18,0,0,0,103,14.73a6.3,6.3,0,0,0,4.6,1.87,6.23,6.23,0,0,0,4.57-1.88,6.25,6.25,0,0,0,1.88-4.57,6.22,6.22,0,0,0-1.88-4.58,6.37,6.37,0,0,0-4.65-1.86m3.59,8.53a3.82,3.82,0,0,1-1.47,1.47,4.08,4.08,0,0,1-2.07.54,4,4,0,0,1-4-4.05,4.14,4.14,0,0,1,.53-2.1,4.09,4.09,0,0,1,3.49-2,4,4,0,0,1,2,.56,3.92,3.92,0,0,1,1.49,1.47,4,4,0,0,1,.53,2.07,4.15,4.15,0,0,1-.53,2.1"/><path class="cls-2" d="M12.11,10.56l-.17,0a3.4,3.4,0,0,0-.66.28,1,1,0,0,0-.14,1.1,1.55,1.55,0,0,0,.87.57.2.2,0,0,0,.16,0,4.2,4.2,0,0,0,.35-.25c.35-.26.27-.62.19-1a.86.86,0,0,0-.61-.7m0,1.56a.25.25,0,0,1-.27,0,.71.71,0,0,1-.25-1c.17.09.29,0,.41-.13a.24.24,0,0,1,.39.06.81.81,0,0,1-.28,1"/><path class="cls-2" d="M12.06,12.58H12a1.64,1.64,0,0,1-.91-.61,1.08,1.08,0,0,1,.16-1.21,2.17,2.17,0,0,1,.5-.23l.17-.06h.22a.93.93,0,0,1,.67.76c.08.33.17.75-.22,1a4.32,4.32,0,0,1-.36.25.3.3,0,0,1-.15,0m-.11-2-.16.06a2,2,0,0,0-.46.21.94.94,0,0,0-.11,1,1.47,1.47,0,0,0,.83.54.17.17,0,0,0,.09,0,4,4,0,0,0,.35-.25c.31-.24.23-.57.16-.89a.78.78,0,0,0-.55-.64H12m0,1.62a.37.37,0,0,1-.19-.06.79.79,0,0,1-.28-1.06l0-.08.08,0c.12.07.2,0,.32-.11a.32.32,0,0,1,.52.08.79.79,0,0,1,.07.63.82.82,0,0,1-.38.52.34.34,0,0,1-.16,0m-.35-1a.62.62,0,0,0,.24.79.17.17,0,0,0,.2,0,.66.66,0,0,0,.3-.42.65.65,0,0,0,0-.51c-.07-.11-.19-.14-.27-.05a.43.43,0,0,1-.43.18"/><path class="cls-2" d="M26.23,4.84A2.21,2.21,0,0,0,26,4.42a2.44,2.44,0,0,0-.9-1.12,10.93,10.93,0,0,0-1.39-.92,6.3,6.3,0,0,0-1.78-.53h-.27c.24.09.56.08.61.23l-.22.06a3.65,3.65,0,0,1-1.21,0H19.69l-.08-.07h-.09A8.53,8.53,0,0,0,15.65.33l-.25,0h0l0,0a2.2,2.2,0,0,0-1-.18h-.58V.19h-.22l0-.11H13A9,9,0,0,0,11.3.45L11,.55,11,.57h0a3.54,3.54,0,0,0-.59.22l-.09,0h0a4,4,0,0,0-.67.5l0,0-.06,0-.06,0-.1.19-.24,0,0,0L9,1.66l0,0A.76.76,0,0,0,8.47,2L8.4,2a1.26,1.26,0,0,0-.21.24A1.1,1.1,0,0,1,8,2.44a1,1,0,0,1-.2.12,1.12,1.12,0,0,0-.28.18c-.25.24-.49.49-.72.73l-.27.28a4.06,4.06,0,0,0-.34.43,2.41,2.41,0,0,1-.51.57.23.23,0,0,0-.13,0c-.13,0-.19.12-.22.17l-.2.39L5,5.63a1.61,1.61,0,0,1-.17.24,1.48,1.48,0,0,0-.25.41H4.5l-.1,0,0,.1,0,.16a2.4,2.4,0,0,0-.08.38.87.87,0,0,0,0,.17L2.88,8A7.84,7.84,0,0,0,.76,9.81a3,3,0,0,0-.67,1.39,1.87,1.87,0,0,0,.35,1.43,6.9,6.9,0,0,0,2,1.52,8.57,8.57,0,0,0,2.23.75,3.2,3.2,0,0,1,.25.61.34.34,0,0,0,.18.2l0,0,.2.12.16.08a4.41,4.41,0,0,0,1,.95c.21.15.43.31.72.5a4.9,4.9,0,0,0,.5.3l.28.14c.4.2.82.42,1.24.6s.66.25,1,.36l.19.06a3.77,3.77,0,0,0,.71.18,5,5,0,0,0,.61,0h1.06a4.19,4.19,0,0,0,1.07-.11,7.07,7.07,0,0,1,.82-.15l.53-.08.52-.1c.59-.11,1.2-.22,1.8-.36a7.82,7.82,0,0,0,1.91-.79,7.11,7.11,0,0,0,1.14-.72h.15a.42.42,0,0,0,.42-.38h.06c.12,0,.22-.13.24-.16l.2-.27a6.38,6.38,0,0,0,.51-.74A6.54,6.54,0,0,0,22.73,14a15,15,0,0,0,.44-1.66,9.08,9.08,0,0,0,.14-1.58A10.22,10.22,0,0,0,24.55,9.7a7.53,7.53,0,0,0,1.32-1.87,4.4,4.4,0,0,0,.45-1.59,4.24,4.24,0,0,0-.09-1.4M6.61,5.26A10.16,10.16,0,0,1,9,2.87a7.86,7.86,0,0,1,3.63-1.45l.5,0c.28,0,.56,0,.84,0l.48,0a2.85,2.85,0,0,1,.72.1c.7.22,1.32.43,1.87.65a3.21,3.21,0,0,1,.51.28l.32.19a9.44,9.44,0,0,1,1.37.9,5.25,5.25,0,0,1,.51.45,8.14,8.14,0,0,1,.67.73,10.39,10.39,0,0,1,1.26,2.11,10,10,0,0,1,.62,1.59,5.27,5.27,0,0,1,.2,1.42l-.51.38a12.5,12.5,0,0,1-1.64.86l-.31.31-.05.05h0A3,3,0,0,1,19,12a4.67,4.67,0,0,0-1,.46,2.67,2.67,0,0,1-.64.33l0,0c0-.64,0-1.28,0-1.92,0-.47,0-1,0-1.42,0-.19,0-.37,0-.56s0-.4,0-.59,0-.36,0-.54c0,0,0-.4-.05-.65s-.08-.57-.13-.93l0-.13c0-.2-.09-.56-.41-.56h-.08c-.38,0-.75.2-1.13.22l-1.29.08-1,.07L11.53,6H9.89l0,0a.71.71,0,0,0-.09.39c.11.44.09.25.09.35,0,.88,0,1.77-.05,2.64v.4c0,.28,0,.56,0,.85s0,.81,0,1.21c0,.57,0,1.09,0,1.59s0,.72,0,1.08l-.68.08a1.11,1.11,0,0,0-.23,0,1.29,1.29,0,0,1-.73.07,24.61,24.61,0,0,1-2.66-.34,5.55,5.55,0,0,1-.71-1.68,4.62,4.62,0,0,1-.11-1.27,21,21,0,0,1,.24-2.19,9.26,9.26,0,0,1,1.69-4m8.78,8.21c-.15,0-.3.07-.44.11a16.91,16.91,0,0,1-2.9.66l-1.47.19v-.3c0-.28,0-.57,0-.85a9.1,9.1,0,0,1,.05-1.11l0-.23c0-.32,0-.57,0-.8s0-.76,0-1.14,0-1,0-1.46,0-.7,0-1V7.17c.82-.08,4.85-.36,5.63-.39a1.07,1.07,0,0,1,0,.19c0,.34,0,.68,0,1,0,.52,0,1.06,0,1.58s0,.91,0,1.36,0,.73,0,1.1,0,.67,0,1l-.19,0v0l.18-.06v.06l-.19.06c-.14,0-.31.16-.43.08l-.21.09c.1.06,0,.09-.15.12M2,12.85A1.6,1.6,0,0,1,1.21,11,4.6,4.6,0,0,1,2.83,8.79,13,13,0,0,1,4,7.92a6.1,6.1,0,0,0-.12.7l0,.39a11.46,11.46,0,0,0-.12,1.36,14.06,14.06,0,0,0,.61,3.7h0a6.43,6.43,0,0,1-1.08-.43A10.85,10.85,0,0,1,2,12.85m7.71,4.28c0,.11,0,.22,0,.34h0l-.48-.19a9.91,9.91,0,0,1-2.42-1.37,6.36,6.36,0,0,1-.76-.76c.7.09,1.44.14,2.19.19a14.19,14.19,0,0,0,1.54,0c0,.21,0,.41,0,.6,0,.39,0,.78,0,1.19m4,.43h-.54l-.78,0h-.64l-.94,0-.24,0h0c0-.05,0-.1,0-.15s0-.35,0-.52c0-.51,0-1,0-1.52a26.85,26.85,0,0,0,5.3-1l.42-.13a16,16,0,0,1-.22,2,2.61,2.61,0,0,1-.07.26l0,.15,0,.08.05.06.2.24.18.24s-1.74.34-2.64.39m8.14-4.86a6.72,6.72,0,0,1-1.43,2.44A7.17,7.17,0,0,1,16.94,17h0V17l0-.13c0-.1,0-.21.05-.32.05-.44.11-.92.16-1.39s.08-.78.09-1.19c0,0,0-.06,0-.1.67-.23,1.32-.48,1.94-.75a24.54,24.54,0,0,0,3-1.59,10.33,10.33,0,0,1-.32,1.18m3.28-7a9.86,9.86,0,0,1-.42,1.43,6.06,6.06,0,0,1-1.44,2h0A13.8,13.8,0,0,0,22.81,6a8,8,0,0,0-1.55-3A4.14,4.14,0,0,0,21,2.69c.34,0,.67,0,1,0a6.19,6.19,0,0,1,2.18.54.91.91,0,0,1,.46.34,4.06,4.06,0,0,1,.6,2"/><path class="cls-2" d="M11.79,19.13a5.12,5.12,0,0,1-.62,0,3.9,3.9,0,0,1-.73-.19l-.19-.06c-.33-.11-.67-.22-1-.36S8.42,18.1,8,17.9l-.31-.15a4.86,4.86,0,0,1-.51-.3c-.29-.19-.52-.35-.72-.5a4.51,4.51,0,0,1-1-.95l-.14-.08-.21-.12,0,0a.42.42,0,0,1-.22-.24A3,3,0,0,0,4.66,15a8.51,8.51,0,0,1-2.22-.75A6.85,6.85,0,0,1,.38,12.68,2,2,0,0,1,0,11.2,3,3,0,0,1,.7,9.77,7.91,7.91,0,0,1,2.84,7.89l1.35-.83a.81.81,0,0,1,0-.14,2.37,2.37,0,0,1,.08-.39l0-.15,0-.15.15,0h0a1.67,1.67,0,0,1,.25-.39,1.63,1.63,0,0,0,.16-.23l.13-.25.05-.1.2-.39a.33.33,0,0,1,.28-.21l.12,0a2.56,2.56,0,0,0,.45-.52,4.17,4.17,0,0,1,.35-.43l.27-.28c.24-.25.47-.5.72-.74A1.14,1.14,0,0,1,7.8,2.5,1,1,0,0,0,8,2.38a1.06,1.06,0,0,0,.14-.17A1.29,1.29,0,0,1,8.35,2l.07-.06a.86.86,0,0,1,.5-.27h0L9,1.54l.07-.05.22,0,.09-.17.08,0,.07,0h0A5.65,5.65,0,0,1,10,.9H9.9l.42-.16a3.54,3.54,0,0,1,.59-.23l.09,0,.27-.1A9,9,0,0,1,13,0h.75l0,.11h0V0h.65a2.26,2.26,0,0,1,1,.19h0l.25,0A8.56,8.56,0,0,1,19.55,2h.1l.08.08h.6l0,0,0,0h.49l.24,0,.4,0a2.22,2.22,0,0,0,.52-.06l.07,0-.18,0a1.78,1.78,0,0,1-.28-.08l-.38-.15H22a6.39,6.39,0,0,1,1.8.54,4.63,4.63,0,0,1,.9.58c.16.12.32.24.49.35a2.49,2.49,0,0,1,.93,1.15l.08.14a1,1,0,0,1,.14.29,4.36,4.36,0,0,1,.09,1.43,4.47,4.47,0,0,1-.46,1.61A7.61,7.61,0,0,1,24.6,9.75a10.25,10.25,0,0,1-1.22,1.06,8.89,8.89,0,0,1-.14,1.56A15.25,15.25,0,0,1,22.81,14a6.6,6.6,0,0,1-.52,1.2,6.41,6.41,0,0,1-.51.74l0,0-.19.25a.44.44,0,0,1-.3.19.5.5,0,0,1-.48.38h-.13a7.34,7.34,0,0,1-1.14.72,7.88,7.88,0,0,1-1.93.79c-.6.14-1.21.25-1.8.36l-.52.1-.53.08a7,7,0,0,0-.81.15,4.26,4.26,0,0,1-1.09.11H11.79M4.47,6.37v.05l0,.16a2.21,2.21,0,0,0-.08.36.71.71,0,0,0,0,.15v0l0,0c-.45.27-.93.56-1.39.85A7.75,7.75,0,0,0,.82,9.86a3,3,0,0,0-.66,1.35A1.76,1.76,0,0,0,.5,12.58a6.7,6.7,0,0,0,2,1.5,8.41,8.41,0,0,0,2.21.75h0l0,0A3.27,3.27,0,0,1,5,15.5c0,.07.09.11.14.15l0,0,.2.12.19.11a4.3,4.3,0,0,0,1,.93c.2.15.42.31.71.49a4.73,4.73,0,0,0,.5.29l.31.15c.4.2.8.41,1.22.59a10.43,10.43,0,0,0,1,.35l.19.06a3.79,3.79,0,0,0,.7.18,4.88,4.88,0,0,0,.6,0h1.06a4.09,4.09,0,0,0,1.05-.11,7.32,7.32,0,0,1,.83-.15l.52-.08.52-.1c.59-.11,1.19-.22,1.79-.36a7.74,7.74,0,0,0,1.89-.78,7.11,7.11,0,0,0,1.13-.71l0,0h.18a.34.34,0,0,0,.34-.31v-.1l.13,0c.05,0,.12-.07.17-.13l.19-.25v0a6.31,6.31,0,0,0,.51-.73A6.38,6.38,0,0,0,22.66,14a15.11,15.11,0,0,0,.44-1.65,8.93,8.93,0,0,0,.13-1.57v0l0,0a10.2,10.2,0,0,0,1.23-1.06A7.44,7.44,0,0,0,25.8,7.8a4.3,4.3,0,0,0,.44-1.56,4.12,4.12,0,0,0-.09-1.38A.87.87,0,0,0,26,4.61l-.09-.15a2.36,2.36,0,0,0-.87-1.09c-.18-.12-.35-.24-.51-.36a4.39,4.39,0,0,0-.87-.56A6.41,6.41,0,0,0,22.32,2l0,.06,0,.08-.18,0-.12,0a2.38,2.38,0,0,1-.55.06l-.42,0-.26,0h0l-1.2,0-.08-.07H19.5l0,0A8.42,8.42,0,0,0,15.64.41L15.35.36l0,0a2.12,2.12,0,0,0-.94-.17h-.5V.27h-.4l0-.11H13a8.8,8.8,0,0,0-1.65.36l-.26.09L11,.66a3.42,3.42,0,0,0-.58.22l-.06,0a4,4,0,0,0-.65.48h0l-.07,0-.05,0h0l-.11.21-.27,0,0,0L9,1.72l0,0H9A.69.69,0,0,0,8.52,2l-.08.07a1.23,1.23,0,0,0-.19.23,1.13,1.13,0,0,1-.16.19,1,1,0,0,1-.2.13,1.12,1.12,0,0,0-.27.17c-.25.23-.48.48-.71.73l-.28.29a4,4,0,0,0-.34.42,2.48,2.48,0,0,1-.53.58l0,0,0,0c-.12-.07-.19,0-.23.1l-.2.39-.05.1-.13.25a1.7,1.7,0,0,1-.17.25,1.42,1.42,0,0,0-.24.39l0,.05H4.47Zm8.76,11.27H11.81l-.94,0-.25,0h-.06l0-.07v-.15c0-.19,0-.36,0-.53,0-.44,0-.92,0-1.51V15.2h.07a26.61,26.61,0,0,0,5.28-1l.42-.13.11,0v.11a15.9,15.9,0,0,1-.22,2,2.69,2.69,0,0,1-.07.27l0,.15v0l.23.28.25.34-.12,0s-1.75.34-2.66.39h-.55m-2.55-.24.19,0,.92,0h.69c.44,0,.92,0,1.28,0,.75,0,2.1-.29,2.51-.37l-.38-.47,0-.12,0-.15c0-.1.05-.17.06-.25a15.54,15.54,0,0,0,.21-1.85l-.31.09a26.67,26.67,0,0,1-5.24,1c0,.56,0,1,0,1.45,0,.16,0,.33,0,.51Zm-.84.18-.17-.07-.45-.18A10,10,0,0,1,6.77,16,6.53,6.53,0,0,1,6,15.18L5.87,15l.2,0c.72.09,1.47.14,2.18.19a14.5,14.5,0,0,0,1.53,0h.08v.08q0,.25,0,.48v.12c0,.4,0,.8,0,1.19ZM6.25,15.23a6.3,6.3,0,0,0,.62.6,9.86,9.86,0,0,0,2.4,1.36l.4.16v-.23c0-.39,0-.79,0-1.2v-.12c0-.13,0-.26,0-.4a14.23,14.23,0,0,1-1.46,0c-.65,0-1.33-.09-2-.16m10.56,1.92,0-.18,0-.1v0c0-.1,0-.2.05-.31,0-.42.11-.91.15-1.39,0-.32.08-.77.09-1.19V13.8l.05,0c.71-.24,1.34-.49,1.94-.75a24.13,24.13,0,0,0,3-1.58l.16-.1,0,.18A10.14,10.14,0,0,1,22,12.72a6.78,6.78,0,0,1-1.45,2.47A7.24,7.24,0,0,1,17,17.11Zm.51-3.24v0c0,.43-.06.87-.1,1.2,0,.48-.1,1-.16,1.4,0,.11,0,.21-.05.31v.07a7,7,0,0,0,3.42-1.86,6.61,6.61,0,0,0,1.42-2.41,9.56,9.56,0,0,0,.28-1,24.9,24.9,0,0,1-2.9,1.5c-.58.26-1.2.5-1.9.74m-8.85.89-.22,0H8.16a25.27,25.27,0,0,1-2.67-.34h0l0,0a5.61,5.61,0,0,1-.72-1.7,4.71,4.71,0,0,1-.12-1.29,21,21,0,0,1,.24-2.2,9.33,9.33,0,0,1,1.71-4,10.22,10.22,0,0,1,2.4-2.41,7.93,7.93,0,0,1,3.67-1.47,4.33,4.33,0,0,1,.51,0c.29,0,.6,0,.85,0l.48,0a2.9,2.9,0,0,1,.73.1c.7.22,1.31.43,1.87.65a3.23,3.23,0,0,1,.51.28l0,.08,0-.07.3.18a9.57,9.57,0,0,1,1.38.9A5.3,5.3,0,0,1,19.8,4a8.31,8.31,0,0,1,.67.73,10.48,10.48,0,0,1,1.27,2.13,10.07,10.07,0,0,1,.62,1.6,5.38,5.38,0,0,1,.21,1.44v0l0,0-.51.39a7.56,7.56,0,0,1-1.17.64l-.47.23-.37.36a3.06,3.06,0,0,1-1,.55,4.59,4.59,0,0,0-1,.45,2.79,2.79,0,0,1-.65.34l-.15.06v-.11c0-.66,0-1.34,0-1.92s0-1,0-1.42V9.39c0-.16,0-.31,0-.47s0-.34,0-.51V8.33q0-.27,0-.53s0-.39-.05-.64,0-.37-.07-.54,0-.24-.06-.39l0-.13c0-.33-.15-.49-.33-.49h-.05a2.88,2.88,0,0,0-.56.11,3,3,0,0,1-.58.11l-1.29.08L13.32,6h-.19l-1.59.1H9.91a.58.58,0,0,0-.08.32,2.19,2.19,0,0,0,.08.29v.05a.13.13,0,0,0,0,0c0,.89,0,1.82-.05,2.64v.4c0,.25,0,.49,0,.74v.16c0,.38,0,.77,0,1.15,0,.57,0,1.09,0,1.58,0,.33,0,.69,0,1.09v.07H9.81l-.68.08H8.92a1.16,1.16,0,0,1-.46.1M5.55,14.3a25.36,25.36,0,0,0,2.62.33h.3a1,1,0,0,0,.4-.08.46.46,0,0,1,.16,0h.08l.61-.07c0-.37,0-.7,0-1,0-.5-.05-1,0-1.6,0-.39,0-.78,0-1.16v-.16c0-.25,0-.49,0-.74V9.4c0-.82,0-1.75.05-2.64v0a3.07,3.07,0,0,1-.09-.31A.75.75,0,0,1,9.79,6l0,0,.06,0h1.66l1.59-.1h.19l.8-.05,1.29-.08a2.85,2.85,0,0,0,.55-.11,3.09,3.09,0,0,1,.58-.11h.08c.27,0,.44.21.49.63l0,.13c0,.15,0,.27.05.38s0,.33.07.54.05.65.05.65c0,.18,0,.36,0,.54v.08c0,.17,0,.34,0,.51s0,.31,0,.47v.09c0,.41,0,.93,0,1.41s0,1.19,0,1.81a2.52,2.52,0,0,0,.56-.3A4.72,4.72,0,0,1,19,11.94a2.93,2.93,0,0,0,1-.53l.39-.38.49-.24a7.43,7.43,0,0,0,1.15-.62l.47-.36a5.25,5.25,0,0,0-.2-1.36,10,10,0,0,0-.61-1.57,10.33,10.33,0,0,0-1.25-2.09,8.33,8.33,0,0,0-.66-.72,5.26,5.26,0,0,0-.51-.44,9.47,9.47,0,0,0-1.36-.89l-.31-.18h0A3.1,3.1,0,0,0,17,2.29c-.56-.22-1.17-.43-1.86-.65a2.79,2.79,0,0,0-.7-.1l-.48,0c-.25,0-.55,0-.84,0l-.5,0A7.78,7.78,0,0,0,9,2.94,10.08,10.08,0,0,0,6.67,5.31,9.17,9.17,0,0,0,5,9.24a20.64,20.64,0,0,0-.24,2.18,4.55,4.55,0,0,0,.11,1.25,5.46,5.46,0,0,0,.68,1.62m5,.23,0-.44c0-.27,0-.53,0-.8a9.31,9.31,0,0,1,.05-1.12l0-.23c0-.32,0-.56,0-.79s0-.76,0-1.14,0-1,0-1.46,0-.69,0-1V7.1h.07c.82-.08,4.87-.36,5.63-.39h.07v.07a1.15,1.15,0,0,1,0,.2q0,.51,0,1c0,.56,0,1.07,0,1.58s0,.94,0,1.36,0,.74,0,1.1,0,.61,0,.93h0v.22l-.24.08-.1,0a.49.49,0,0,1-.36.05l-.09,0v0c0,.08-.11.11-.23.14l-.16,0-.29.08a17,17,0,0,1-2.91.66l-1.47.19Zm.23-7.29v.27c0,.35,0,.7,0,1s0,1,0,1.46,0,.76,0,1.14,0,.48,0,.81l0,.23a9.15,9.15,0,0,0-.05,1.1c0,.27,0,.53,0,.8v.28L12,14.17a16.74,16.74,0,0,0,2.88-.66l.3-.08.14,0h.05l-.05,0,.16-.08.22-.09h0c.05,0,.15,0,.25,0l.06,0v-.06l.07,0,.13,0c0-.33,0-.66,0-1s0-.73,0-1.1,0-.9,0-1.36,0-1,0-1.59c0-.34,0-.68,0-1a.85.85,0,0,0,0-.11c-.88,0-4.56.3-5.49.38M4.47,14.19l-.13,0a6.75,6.75,0,0,1-1.09-.44,8.74,8.74,0,0,1-1-.66L2,12.91A1.68,1.68,0,0,1,1.13,11,4.68,4.68,0,0,1,2.78,8.73,12.8,12.8,0,0,1,4,7.85l.16-.11,0,.19A6,6,0,0,0,4,8.63l0,.34V9a11.43,11.43,0,0,0-.12,1.35,14,14,0,0,0,.61,3.68Zm-.56-6.1a12.23,12.23,0,0,0-1,.76,4.54,4.54,0,0,0-1.6,2.2,1.52,1.52,0,0,0,.81,1.73l.21.15a8.75,8.75,0,0,0,1,.65,6.31,6.31,0,0,0,.93.38,13.64,13.64,0,0,1-.58-3.59A11.55,11.55,0,0,1,3.79,9V9l0-.34c0-.19,0-.36.08-.52M23.25,9.25V9.12A13.55,13.55,0,0,0,22.73,6a7.94,7.94,0,0,0-1.54-3,4.27,4.27,0,0,0-.3-.32l-.14-.14H21l1,0a6.24,6.24,0,0,1,2.21.55,1,1,0,0,1,.5.38l.11.23a3.49,3.49,0,0,1,.5,1.84,8,8,0,0,1-.35,1.22l-.08.23a5.94,5.94,0,0,1-1.46,2.06h0ZM21.14,2.77l.17.19a8.1,8.1,0,0,1,1.57,3,13.87,13.87,0,0,1,.51,2.94,5.51,5.51,0,0,0,1.3-1.88l.08-.23a8,8,0,0,0,.34-1.19,3.4,3.4,0,0,0-.49-1.75l-.11-.23c-.06-.13-.25-.22-.43-.3a6.1,6.1,0,0,0-2.16-.53l-.79,0"/><path class="cls-2" d="M18,12.19l0,0s0,0,0,0"/><path class="cls-2" d="M18.06,12.22l-.14-.06h0a.11.11,0,0,1,.06-.08l.2-.1Z"/><path class="cls-2" d="M20.82,2.09l0,.06A2.16,2.16,0,0,0,21.53,2l-.72.08"/><path class="cls-2" d="M20.82,2.24,20.69,2h.12l.72-.08.44,0-.4.2a1.16,1.16,0,0,1-.5.12l-.19,0Z"/></g></g></g></svg>